<?xml version="1.0" encoding="utf-8" standalone="no"?>
<!DOCTYPE svg PUBLIC "-//W3C//DTD SVG 1.1//EN"
  "http://www.w3.org/Graphics/SVG/1.1/DTD/svg11.dtd">
<!-- Created with matplotlib (https://matplotlib.org/) -->
<svg height="229.441719pt" version="1.1" viewBox="0 0 337.633437 229.441719" width="337.633437pt" xmlns="http://www.w3.org/2000/svg" xmlns:xlink="http://www.w3.org/1999/xlink">
 <defs>
  <style type="text/css">
*{stroke-linecap:butt;stroke-linejoin:round;}
  </style>
 </defs>
 <g id="figure_1">
  <g id="patch_1">
   <path d="M 0 229.441719 
L 337.633437 229.441719 
L 337.633437 0 
L 0 0 
z
" style="fill:#ffffff;"/>
  </g>
  <g id="axes_1">
   <g id="patch_2">
    <path d="M 47.933438 190.917656 
L 326.933438 190.917656 
L 326.933438 24.597656 
L 47.933438 24.597656 
z
" style="fill:#ffffff;"/>
   </g>
   <g id="PathCollection_1">
    <defs>
     <path d="M 0 -2.738613 
L -0.614857 -0.846278 
L -2.604576 -0.846278 
L -0.994859 0.323249 
L -1.609716 2.215584 
L -0 1.046057 
L 1.609716 2.215584 
L 0.994859 0.323249 
L 2.604576 -0.846278 
L 0.614857 -0.846278 
z
" id="m4830e4493a" style="stroke:#9acd32;"/>
    </defs>
    <g clip-path="url(#p99be0631d6)">
     <use style="fill:#9acd32;stroke:#9acd32;" x="147.461372" xlink:href="#m4830e4493a" y="154.904355"/>
     <use style="fill:#9acd32;stroke:#9acd32;" x="231.964423" xlink:href="#m4830e4493a" y="150.112804"/>
     <use style="fill:#9acd32;stroke:#9acd32;" x="219.202227" xlink:href="#m4830e4493a" y="148.093224"/>
     <use style="fill:#9acd32;stroke:#9acd32;" x="266.339621" xlink:href="#m4830e4493a" y="146.340349"/>
     <use style="fill:#9acd32;stroke:#9acd32;" x="128.269449" xlink:href="#m4830e4493a" y="149.431999"/>
     <use style="fill:#9acd32;stroke:#9acd32;" x="143.046568" xlink:href="#m4830e4493a" y="149.997479"/>
     <use style="fill:#9acd32;stroke:#9acd32;" x="115.80694" xlink:href="#m4830e4493a" y="142.781425"/>
     <use style="fill:#9acd32;stroke:#9acd32;" x="195.857756" xlink:href="#m4830e4493a" y="142.428488"/>
     <use style="fill:#9acd32;stroke:#9acd32;" x="257.147721" xlink:href="#m4830e4493a" y="142.968568"/>
     <use style="fill:#9acd32;stroke:#9acd32;" x="125.860018" xlink:href="#m4830e4493a" y="149.294279"/>
     <use style="fill:#9acd32;stroke:#9acd32;" x="180.151174" xlink:href="#m4830e4493a" y="145.233787"/>
     <use style="fill:#9acd32;stroke:#9acd32;" x="94.05017" xlink:href="#m4830e4493a" y="143.806377"/>
     <use style="fill:#9acd32;stroke:#9acd32;" x="269.166684" xlink:href="#m4830e4493a" y="139.335686"/>
     <use style="fill:#9acd32;stroke:#9acd32;" x="216.8123" xlink:href="#m4830e4493a" y="146.199958"/>
     <use style="fill:#9acd32;stroke:#9acd32;" x="101.326584" xlink:href="#m4830e4493a" y="138.395232"/>
     <use style="fill:#9acd32;stroke:#9acd32;" x="194.357296" xlink:href="#m4830e4493a" y="150.224679"/>
     <use style="fill:#9acd32;stroke:#9acd32;" x="167.188622" xlink:href="#m4830e4493a" y="146.440248"/>
     <use style="fill:#9acd32;stroke:#9acd32;" x="132.021698" xlink:href="#m4830e4493a" y="138.713932"/>
     <use style="fill:#9acd32;stroke:#9acd32;" x="175.124499" xlink:href="#m4830e4493a" y="151.455375"/>
     <use style="fill:#9acd32;stroke:#9acd32;" x="229.498098" xlink:href="#m4830e4493a" y="143.27331"/>
     <use style="fill:#9acd32;stroke:#9acd32;" x="169.346521" xlink:href="#m4830e4493a" y="152.896039"/>
     <use style="fill:#9acd32;stroke:#9acd32;" x="166.362033" xlink:href="#m4830e4493a" y="151.225837"/>
     <use style="fill:#9acd32;stroke:#9acd32;" x="157.954723" xlink:href="#m4830e4493a" y="141.070036"/>
     <use style="fill:#9acd32;stroke:#9acd32;" x="185.204615" xlink:href="#m4830e4493a" y="141.159121"/>
     <use style="fill:#9acd32;stroke:#9acd32;" x="77.620177" xlink:href="#m4830e4493a" y="143.621295"/>
     <use style="fill:#9acd32;stroke:#9acd32;" x="176.569783" xlink:href="#m4830e4493a" y="152.112902"/>
     <use style="fill:#9acd32;stroke:#9acd32;" x="306.886674" xlink:href="#m4830e4493a" y="152.411553"/>
     <use style="fill:#9acd32;stroke:#9acd32;" x="143.87243" xlink:href="#m4830e4493a" y="134.743172"/>
     <use style="fill:#9acd32;stroke:#9acd32;" x="146.965185" xlink:href="#m4830e4493a" y="135.641254"/>
     <use style="fill:#9acd32;stroke:#9acd32;" x="235.493405" xlink:href="#m4830e4493a" y="147.217789"/>
     <use style="fill:#9acd32;stroke:#9acd32;" x="120.198043" xlink:href="#m4830e4493a" y="142.629537"/>
     <use style="fill:#9acd32;stroke:#9acd32;" x="144.220147" xlink:href="#m4830e4493a" y="155.149402"/>
     <use style="fill:#9acd32;stroke:#9acd32;" x="230.546531" xlink:href="#m4830e4493a" y="141.082975"/>
     <use style="fill:#9acd32;stroke:#9acd32;" x="169.004022" xlink:href="#m4830e4493a" y="142.911631"/>
     <use style="fill:#9acd32;stroke:#9acd32;" x="76.396499" xlink:href="#m4830e4493a" y="159.208331"/>
     <use style="fill:#9acd32;stroke:#9acd32;" x="217.403958" xlink:href="#m4830e4493a" y="139.179875"/>
     <use style="fill:#9acd32;stroke:#9acd32;" x="265.194342" xlink:href="#m4830e4493a" y="150.595223"/>
     <use style="fill:#9acd32;stroke:#9acd32;" x="199.180034" xlink:href="#m4830e4493a" y="140.57317"/>
     <use style="fill:#9acd32;stroke:#9acd32;" x="150.996413" xlink:href="#m4830e4493a" y="152.970943"/>
     <use style="fill:#9acd32;stroke:#9acd32;" x="123.93929" xlink:href="#m4830e4493a" y="142.898013"/>
    </g>
   </g>
   <g id="PathCollection_2">
    <defs>
     <path d="M -0 2.738613 
L 2.738613 -2.738613 
L -2.738613 -2.738613 
z
" id="m4d5d1fbac6" style="stroke:#00bfff;"/>
    </defs>
    <g clip-path="url(#p99be0631d6)">
     <use style="fill:#00bfff;stroke:#00bfff;" x="266.046474" xlink:href="#m4d5d1fbac6" y="44.343454"/>
     <use style="fill:#00bfff;stroke:#00bfff;" x="220.96063" xlink:href="#m4d5d1fbac6" y="48.031025"/>
     <use style="fill:#00bfff;stroke:#00bfff;" x="312.459458" xlink:href="#m4d5d1fbac6" y="50.715016"/>
     <use style="fill:#00bfff;stroke:#00bfff;" x="186.977533" xlink:href="#m4d5d1fbac6" y="47.591109"/>
     <use style="fill:#00bfff;stroke:#00bfff;" x="172.490047" xlink:href="#m4d5d1fbac6" y="45.531898"/>
     <use style="fill:#00bfff;stroke:#00bfff;" x="152.72991" xlink:href="#m4d5d1fbac6" y="52.231972"/>
     <use style="fill:#00bfff;stroke:#00bfff;" x="201.053525" xlink:href="#m4d5d1fbac6" y="39.118942"/>
     <use style="fill:#00bfff;stroke:#00bfff;" x="218.164263" xlink:href="#m4d5d1fbac6" y="46.394781"/>
     <use style="fill:#00bfff;stroke:#00bfff;" x="254.129209" xlink:href="#m4d5d1fbac6" y="45.51553"/>
     <use style="fill:#00bfff;stroke:#00bfff;" x="169.954701" xlink:href="#m4d5d1fbac6" y="51.046986"/>
     <use style="fill:#00bfff;stroke:#00bfff;" x="295.124333" xlink:href="#m4d5d1fbac6" y="46.345109"/>
     <use style="fill:#00bfff;stroke:#00bfff;" x="214.638671" xlink:href="#m4d5d1fbac6" y="52.817252"/>
     <use style="fill:#00bfff;stroke:#00bfff;" x="266.346427" xlink:href="#m4d5d1fbac6" y="47.087491"/>
     <use style="fill:#00bfff;stroke:#00bfff;" x="304.669288" xlink:href="#m4d5d1fbac6" y="52.309821"/>
     <use style="fill:#00bfff;stroke:#00bfff;" x="221.064807" xlink:href="#m4d5d1fbac6" y="47.444182"/>
     <use style="fill:#00bfff;stroke:#00bfff;" x="159.013048" xlink:href="#m4d5d1fbac6" y="51.644489"/>
     <use style="fill:#00bfff;stroke:#00bfff;" x="144.864157" xlink:href="#m4d5d1fbac6" y="50.228872"/>
     <use style="fill:#00bfff;stroke:#00bfff;" x="241.680528" xlink:href="#m4d5d1fbac6" y="53.48586"/>
     <use style="fill:#00bfff;stroke:#00bfff;" x="166.854111" xlink:href="#m4d5d1fbac6" y="43.39317"/>
     <use style="fill:#00bfff;stroke:#00bfff;" x="135.015246" xlink:href="#m4d5d1fbac6" y="38.267917"/>
     <use style="fill:#00bfff;stroke:#00bfff;" x="163.325322" xlink:href="#m4d5d1fbac6" y="54.543953"/>
     <use style="fill:#00bfff;stroke:#00bfff;" x="215.359081" xlink:href="#m4d5d1fbac6" y="51.390822"/>
     <use style="fill:#00bfff;stroke:#00bfff;" x="170.373458" xlink:href="#m4d5d1fbac6" y="49.109375"/>
     <use style="fill:#00bfff;stroke:#00bfff;" x="200.497248" xlink:href="#m4d5d1fbac6" y="42.092652"/>
     <use style="fill:#00bfff;stroke:#00bfff;" x="230.13153" xlink:href="#m4d5d1fbac6" y="32.476868"/>
     <use style="fill:#00bfff;stroke:#00bfff;" x="236.410403" xlink:href="#m4d5d1fbac6" y="41.705599"/>
     <use style="fill:#00bfff;stroke:#00bfff;" x="150.62404" xlink:href="#m4d5d1fbac6" y="50.638258"/>
    </g>
   </g>
   <g id="PathCollection_3">
    <defs>
     <path d="M -2.738613 2.738613 
L 2.738613 2.738613 
L 2.738613 -2.738613 
L -2.738613 -2.738613 
z
" id="mdb556b5599" style="stroke:#ff69b4;"/>
    </defs>
    <g clip-path="url(#p99be0631d6)">
     <use style="fill:#ff69b4;stroke:#ff69b4;" x="238.157095" xlink:href="#mdb556b5599" y="100.683005"/>
     <use style="fill:#ff69b4;stroke:#ff69b4;" x="202.22965" xlink:href="#mdb556b5599" y="84.805036"/>
     <use style="fill:#ff69b4;stroke:#ff69b4;" x="144.484871" xlink:href="#mdb556b5599" y="90.374719"/>
     <use style="fill:#ff69b4;stroke:#ff69b4;" x="170.234677" xlink:href="#mdb556b5599" y="88.27036"/>
     <use style="fill:#ff69b4;stroke:#ff69b4;" x="183.814489" xlink:href="#mdb556b5599" y="94.638162"/>
     <use style="fill:#ff69b4;stroke:#ff69b4;" x="220.100216" xlink:href="#mdb556b5599" y="95.422322"/>
     <use style="fill:#ff69b4;stroke:#ff69b4;" x="220.926909" xlink:href="#mdb556b5599" y="88.975466"/>
     <use style="fill:#ff69b4;stroke:#ff69b4;" x="208.621037" xlink:href="#mdb556b5599" y="93.560215"/>
     <use style="fill:#ff69b4;stroke:#ff69b4;" x="168.543597" xlink:href="#mdb556b5599" y="93.586469"/>
    </g>
   </g>
   <g id="PathCollection_4">
    <defs>
     <path d="M -2.738613 -0 
L 2.738613 2.738613 
L 2.738613 -2.738613 
z
" id="md42b30388a" style="stroke:#ff6347;"/>
    </defs>
    <g clip-path="url(#p99be0631d6)">
     <use style="fill:#ff6347;stroke:#ff6347;" x="185.955569" xlink:href="#md42b30388a" y="171.456168"/>
     <use style="fill:#ff6347;stroke:#ff6347;" x="214.561077" xlink:href="#md42b30388a" y="175.56295"/>
     <use style="fill:#ff6347;stroke:#ff6347;" x="273.745689" xlink:href="#md42b30388a" y="176.49297"/>
     <use style="fill:#ff6347;stroke:#ff6347;" x="174.496248" xlink:href="#md42b30388a" y="174.551224"/>
     <use style="fill:#ff6347;stroke:#ff6347;" x="241.184662" xlink:href="#md42b30388a" y="181.700714"/>
     <use style="fill:#ff6347;stroke:#ff6347;" x="206.811293" xlink:href="#md42b30388a" y="181.422738"/>
     <use style="fill:#ff6347;stroke:#ff6347;" x="223.464435" xlink:href="#md42b30388a" y="166.635777"/>
     <use style="fill:#ff6347;stroke:#ff6347;" x="131.797699" xlink:href="#md42b30388a" y="175.922276"/>
     <use style="fill:#ff6347;stroke:#ff6347;" x="243.437638" xlink:href="#md42b30388a" y="176.967338"/>
     <use style="fill:#ff6347;stroke:#ff6347;" x="95.432589" xlink:href="#md42b30388a" y="178.142308"/>
     <use style="fill:#ff6347;stroke:#ff6347;" x="297.610142" xlink:href="#md42b30388a" y="177.992193"/>
     <use style="fill:#ff6347;stroke:#ff6347;" x="162.368181" xlink:href="#md42b30388a" y="174.573975"/>
     <use style="fill:#ff6347;stroke:#ff6347;" x="211.415836" xlink:href="#md42b30388a" y="158.698555"/>
     <use style="fill:#ff6347;stroke:#ff6347;" x="188.382844" xlink:href="#md42b30388a" y="169.739113"/>
     <use style="fill:#ff6347;stroke:#ff6347;" x="209.242448" xlink:href="#md42b30388a" y="176.420194"/>
     <use style="fill:#ff6347;stroke:#ff6347;" x="158.367579" xlink:href="#md42b30388a" y="163.969245"/>
     <use style="fill:#ff6347;stroke:#ff6347;" x="160.776338" xlink:href="#md42b30388a" y="177.565801"/>
     <use style="fill:#ff6347;stroke:#ff6347;" x="214.657254" xlink:href="#md42b30388a" y="178.141732"/>
     <use style="fill:#ff6347;stroke:#ff6347;" x="225.400726" xlink:href="#md42b30388a" y="164.18774"/>
     <use style="fill:#ff6347;stroke:#ff6347;" x="139.291373" xlink:href="#md42b30388a" y="169.949487"/>
     <use style="fill:#ff6347;stroke:#ff6347;" x="163.743099" xlink:href="#md42b30388a" y="171.227333"/>
     <use style="fill:#ff6347;stroke:#ff6347;" x="232.66439" xlink:href="#md42b30388a" y="175.271871"/>
     <use style="fill:#ff6347;stroke:#ff6347;" x="62.464522" xlink:href="#md42b30388a" y="166.256522"/>
     <use style="fill:#ff6347;stroke:#ff6347;" x="289.339388" xlink:href="#md42b30388a" y="176.703908"/>
    </g>
   </g>
   <g id="matplotlib.axis_1">
    <g id="xtick_1">
     <g id="line2d_1">
      <path clip-path="url(#p99be0631d6)" d="M 102.066922 190.917656 
L 102.066922 24.597656 
" style="fill:none;stroke:#d3d3d3;stroke-linecap:square;stroke-width:0.2;"/>
     </g>
     <g id="line2d_2">
      <defs>
       <path d="M 0 0 
L 0 3.5 
" id="m598b6b3d60" style="stroke:#000000;stroke-width:0.8;"/>
      </defs>
      <g>
       <use style="stroke:#000000;stroke-width:0.8;" x="102.066922" xlink:href="#m598b6b3d60" y="190.917656"/>
      </g>
     </g>
     <g id="text_1">
      <!-- 20 -->
      <defs>
       <path d="M 19.1875 8.296875 
L 53.609375 8.296875 
L 53.609375 0 
L 7.328125 0 
L 7.328125 8.296875 
Q 12.9375 14.109375 22.625 23.890625 
Q 32.328125 33.6875 34.8125 36.53125 
Q 39.546875 41.84375 41.421875 45.53125 
Q 43.3125 49.21875 43.3125 52.78125 
Q 43.3125 58.59375 39.234375 62.25 
Q 35.15625 65.921875 28.609375 65.921875 
Q 23.96875 65.921875 18.8125 64.3125 
Q 13.671875 62.703125 7.8125 59.421875 
L 7.8125 69.390625 
Q 13.765625 71.78125 18.9375 73 
Q 24.125 74.21875 28.421875 74.21875 
Q 39.75 74.21875 46.484375 68.546875 
Q 53.21875 62.890625 53.21875 53.421875 
Q 53.21875 48.921875 51.53125 44.890625 
Q 49.859375 40.875 45.40625 35.40625 
Q 44.1875 33.984375 37.640625 27.21875 
Q 31.109375 20.453125 19.1875 8.296875 
z
" id="DejaVuSans-50"/>
       <path d="M 31.78125 66.40625 
Q 24.171875 66.40625 20.328125 58.90625 
Q 16.5 51.421875 16.5 36.375 
Q 16.5 21.390625 20.328125 13.890625 
Q 24.171875 6.390625 31.78125 6.390625 
Q 39.453125 6.390625 43.28125 13.890625 
Q 47.125 21.390625 47.125 36.375 
Q 47.125 51.421875 43.28125 58.90625 
Q 39.453125 66.40625 31.78125 66.40625 
z
M 31.78125 74.21875 
Q 44.046875 74.21875 50.515625 64.515625 
Q 56.984375 54.828125 56.984375 36.375 
Q 56.984375 17.96875 50.515625 8.265625 
Q 44.046875 -1.421875 31.78125 -1.421875 
Q 19.53125 -1.421875 13.0625 8.265625 
Q 6.59375 17.96875 6.59375 36.375 
Q 6.59375 54.828125 13.0625 64.515625 
Q 19.53125 74.21875 31.78125 74.21875 
z
" id="DejaVuSans-48"/>
      </defs>
      <g transform="translate(95.704422 205.516094)scale(0.1 -0.1)">
       <use xlink:href="#DejaVuSans-50"/>
       <use x="63.623047" xlink:href="#DejaVuSans-48"/>
      </g>
     </g>
    </g>
    <g id="xtick_2">
     <g id="line2d_3">
      <path clip-path="url(#p99be0631d6)" d="M 159.702665 190.917656 
L 159.702665 24.597656 
" style="fill:none;stroke:#d3d3d3;stroke-linecap:square;stroke-width:0.2;"/>
     </g>
     <g id="line2d_4">
      <g>
       <use style="stroke:#000000;stroke-width:0.8;" x="159.702665" xlink:href="#m598b6b3d60" y="190.917656"/>
      </g>
     </g>
     <g id="text_2">
      <!-- 40 -->
      <defs>
       <path d="M 37.796875 64.3125 
L 12.890625 25.390625 
L 37.796875 25.390625 
z
M 35.203125 72.90625 
L 47.609375 72.90625 
L 47.609375 25.390625 
L 58.015625 25.390625 
L 58.015625 17.1875 
L 47.609375 17.1875 
L 47.609375 0 
L 37.796875 0 
L 37.796875 17.1875 
L 4.890625 17.1875 
L 4.890625 26.703125 
z
" id="DejaVuSans-52"/>
      </defs>
      <g transform="translate(153.340165 205.516094)scale(0.1 -0.1)">
       <use xlink:href="#DejaVuSans-52"/>
       <use x="63.623047" xlink:href="#DejaVuSans-48"/>
      </g>
     </g>
    </g>
    <g id="xtick_3">
     <g id="line2d_5">
      <path clip-path="url(#p99be0631d6)" d="M 217.338409 190.917656 
L 217.338409 24.597656 
" style="fill:none;stroke:#d3d3d3;stroke-linecap:square;stroke-width:0.2;"/>
     </g>
     <g id="line2d_6">
      <g>
       <use style="stroke:#000000;stroke-width:0.8;" x="217.338409" xlink:href="#m598b6b3d60" y="190.917656"/>
      </g>
     </g>
     <g id="text_3">
      <!-- 60 -->
      <defs>
       <path d="M 33.015625 40.375 
Q 26.375 40.375 22.484375 35.828125 
Q 18.609375 31.296875 18.609375 23.390625 
Q 18.609375 15.53125 22.484375 10.953125 
Q 26.375 6.390625 33.015625 6.390625 
Q 39.65625 6.390625 43.53125 10.953125 
Q 47.40625 15.53125 47.40625 23.390625 
Q 47.40625 31.296875 43.53125 35.828125 
Q 39.65625 40.375 33.015625 40.375 
z
M 52.59375 71.296875 
L 52.59375 62.3125 
Q 48.875 64.0625 45.09375 64.984375 
Q 41.3125 65.921875 37.59375 65.921875 
Q 27.828125 65.921875 22.671875 59.328125 
Q 17.53125 52.734375 16.796875 39.40625 
Q 19.671875 43.65625 24.015625 45.921875 
Q 28.375 48.1875 33.59375 48.1875 
Q 44.578125 48.1875 50.953125 41.515625 
Q 57.328125 34.859375 57.328125 23.390625 
Q 57.328125 12.15625 50.6875 5.359375 
Q 44.046875 -1.421875 33.015625 -1.421875 
Q 20.359375 -1.421875 13.671875 8.265625 
Q 6.984375 17.96875 6.984375 36.375 
Q 6.984375 53.65625 15.1875 63.9375 
Q 23.390625 74.21875 37.203125 74.21875 
Q 40.921875 74.21875 44.703125 73.484375 
Q 48.484375 72.75 52.59375 71.296875 
z
" id="DejaVuSans-54"/>
      </defs>
      <g transform="translate(210.975909 205.516094)scale(0.1 -0.1)">
       <use xlink:href="#DejaVuSans-54"/>
       <use x="63.623047" xlink:href="#DejaVuSans-48"/>
      </g>
     </g>
    </g>
    <g id="xtick_4">
     <g id="line2d_7">
      <path clip-path="url(#p99be0631d6)" d="M 274.974152 190.917656 
L 274.974152 24.597656 
" style="fill:none;stroke:#d3d3d3;stroke-linecap:square;stroke-width:0.2;"/>
     </g>
     <g id="line2d_8">
      <g>
       <use style="stroke:#000000;stroke-width:0.8;" x="274.974152" xlink:href="#m598b6b3d60" y="190.917656"/>
      </g>
     </g>
     <g id="text_4">
      <!-- 80 -->
      <defs>
       <path d="M 31.78125 34.625 
Q 24.75 34.625 20.71875 30.859375 
Q 16.703125 27.09375 16.703125 20.515625 
Q 16.703125 13.921875 20.71875 10.15625 
Q 24.75 6.390625 31.78125 6.390625 
Q 38.8125 6.390625 42.859375 10.171875 
Q 46.921875 13.96875 46.921875 20.515625 
Q 46.921875 27.09375 42.890625 30.859375 
Q 38.875 34.625 31.78125 34.625 
z
M 21.921875 38.8125 
Q 15.578125 40.375 12.03125 44.71875 
Q 8.5 49.078125 8.5 55.328125 
Q 8.5 64.0625 14.71875 69.140625 
Q 20.953125 74.21875 31.78125 74.21875 
Q 42.671875 74.21875 48.875 69.140625 
Q 55.078125 64.0625 55.078125 55.328125 
Q 55.078125 49.078125 51.53125 44.71875 
Q 48 40.375 41.703125 38.8125 
Q 48.828125 37.15625 52.796875 32.3125 
Q 56.78125 27.484375 56.78125 20.515625 
Q 56.78125 9.90625 50.3125 4.234375 
Q 43.84375 -1.421875 31.78125 -1.421875 
Q 19.734375 -1.421875 13.25 4.234375 
Q 6.78125 9.90625 6.78125 20.515625 
Q 6.78125 27.484375 10.78125 32.3125 
Q 14.796875 37.15625 21.921875 38.8125 
z
M 18.3125 54.390625 
Q 18.3125 48.734375 21.84375 45.5625 
Q 25.390625 42.390625 31.78125 42.390625 
Q 38.140625 42.390625 41.71875 45.5625 
Q 45.3125 48.734375 45.3125 54.390625 
Q 45.3125 60.0625 41.71875 63.234375 
Q 38.140625 66.40625 31.78125 66.40625 
Q 25.390625 66.40625 21.84375 63.234375 
Q 18.3125 60.0625 18.3125 54.390625 
z
" id="DejaVuSans-56"/>
      </defs>
      <g transform="translate(268.611652 205.516094)scale(0.1 -0.1)">
       <use xlink:href="#DejaVuSans-56"/>
       <use x="63.623047" xlink:href="#DejaVuSans-48"/>
      </g>
     </g>
    </g>
    <g id="text_5">
     <!-- X values -->
     <defs>
      <path d="M 33.109375 31.203125 
L 15.28125 5.171875 
L 24.703125 5.171875 
L 24.703125 0 
L 0.59375 0 
L 0.59375 5.171875 
L 8.984375 5.171875 
L 29.984375 35.796875 
L 8.6875 67.671875 
L 0.875 67.671875 
L 0.875 72.90625 
L 29.78125 72.90625 
L 29.78125 67.671875 
L 21.1875 67.671875 
L 36.8125 44.1875 
L 52.875 67.671875 
L 43.5 67.671875 
L 43.5 72.90625 
L 67.390625 72.90625 
L 67.390625 67.671875 
L 59.1875 67.671875 
L 39.890625 39.59375 
L 62.890625 5.171875 
L 70.703125 5.171875 
L 70.703125 0 
L 41.796875 0 
L 41.796875 5.171875 
L 50.484375 5.171875 
z
" id="DejaVuSerif-88"/>
      <path id="DejaVuSerif-32"/>
      <path d="M 24.703125 0 
L 5.609375 46.6875 
L -0.296875 46.6875 
L -0.296875 51.90625 
L 23.578125 51.90625 
L 23.578125 46.6875 
L 15.28125 46.6875 
L 29.890625 10.984375 
L 44.484375 46.6875 
L 36.71875 46.6875 
L 36.71875 51.90625 
L 56.203125 51.90625 
L 56.203125 46.6875 
L 50.390625 46.6875 
L 31.296875 0 
z
" id="DejaVuSerif-118"/>
      <path d="M 39.796875 16.3125 
L 39.796875 27.296875 
L 28.21875 27.296875 
Q 21.53125 27.296875 18.25 24.40625 
Q 14.984375 21.53125 14.984375 15.578125 
Q 14.984375 10.15625 18.296875 6.984375 
Q 21.625 3.8125 27.296875 3.8125 
Q 32.90625 3.8125 36.34375 7.28125 
Q 39.796875 10.75 39.796875 16.3125 
z
M 48.78125 32.421875 
L 48.78125 5.171875 
L 56.78125 5.171875 
L 56.78125 0 
L 39.796875 0 
L 39.796875 5.609375 
Q 36.8125 2 32.90625 0.28125 
Q 29 -1.421875 23.78125 -1.421875 
Q 15.140625 -1.421875 10.0625 3.171875 
Q 4.984375 7.765625 4.984375 15.578125 
Q 4.984375 23.640625 10.796875 28.078125 
Q 16.609375 32.515625 27.203125 32.515625 
L 39.796875 32.515625 
L 39.796875 36.078125 
Q 39.796875 42 36.203125 45.234375 
Q 32.625 48.484375 26.125 48.484375 
Q 20.75 48.484375 17.578125 46.046875 
Q 14.40625 43.609375 13.625 38.8125 
L 8.984375 38.8125 
L 8.984375 49.3125 
Q 13.671875 51.3125 18.09375 52.3125 
Q 22.515625 53.328125 26.703125 53.328125 
Q 37.5 53.328125 43.140625 47.96875 
Q 48.78125 42.625 48.78125 32.421875 
z
" id="DejaVuSerif-97"/>
      <path d="M 20.515625 5.171875 
L 29 5.171875 
L 29 0 
L 2.875 0 
L 2.875 5.171875 
L 11.53125 5.171875 
L 11.53125 70.796875 
L 2.875 70.796875 
L 2.875 75.984375 
L 20.515625 75.984375 
z
" id="DejaVuSerif-108"/>
      <path d="M 35.40625 51.90625 
L 52.203125 51.90625 
L 52.203125 5.171875 
L 60.6875 5.171875 
L 60.6875 0 
L 43.21875 0 
L 43.21875 9.1875 
Q 40.71875 4 36.765625 1.28125 
Q 32.8125 -1.421875 27.59375 -1.421875 
Q 18.953125 -1.421875 14.875 3.484375 
Q 10.796875 8.40625 10.796875 18.890625 
L 10.796875 46.6875 
L 2.6875 46.6875 
L 2.6875 51.90625 
L 19.828125 51.90625 
L 19.828125 21.6875 
Q 19.828125 12.203125 22.140625 8.6875 
Q 24.46875 5.171875 30.421875 5.171875 
Q 36.671875 5.171875 39.9375 9.765625 
Q 43.21875 14.359375 43.21875 23.09375 
L 43.21875 46.6875 
L 35.40625 46.6875 
z
" id="DejaVuSerif-117"/>
      <path d="M 54.203125 25 
L 15.484375 25 
L 15.484375 24.609375 
Q 15.484375 14.109375 19.4375 8.765625 
Q 23.390625 3.421875 31.109375 3.421875 
Q 37.015625 3.421875 40.796875 6.515625 
Q 44.578125 9.625 46.09375 15.71875 
L 53.328125 15.71875 
Q 51.171875 7.171875 45.375 2.875 
Q 39.59375 -1.421875 30.171875 -1.421875 
Q 18.796875 -1.421875 11.890625 6.078125 
Q 4.984375 13.578125 4.984375 25.984375 
Q 4.984375 38.28125 11.765625 45.796875 
Q 18.5625 53.328125 29.59375 53.328125 
Q 41.359375 53.328125 47.65625 46.0625 
Q 53.953125 38.8125 54.203125 25 
z
M 43.609375 30.171875 
Q 43.3125 39.265625 39.765625 43.875 
Q 36.234375 48.484375 29.59375 48.484375 
Q 23.390625 48.484375 19.828125 43.84375 
Q 16.265625 39.203125 15.484375 30.171875 
z
" id="DejaVuSerif-101"/>
      <path d="M 5.609375 2.875 
L 5.609375 14.984375 
L 10.796875 14.984375 
Q 10.984375 9.1875 14.421875 6.296875 
Q 17.875 3.421875 24.609375 3.421875 
Q 30.671875 3.421875 33.84375 5.6875 
Q 37.015625 7.953125 37.015625 12.3125 
Q 37.015625 15.71875 34.6875 17.8125 
Q 32.375 19.921875 24.90625 22.3125 
L 18.40625 24.515625 
Q 11.71875 26.65625 8.71875 29.875 
Q 5.71875 33.109375 5.71875 38.09375 
Q 5.71875 45.21875 10.9375 49.265625 
Q 16.15625 53.328125 25.390625 53.328125 
Q 29.5 53.328125 34.03125 52.25 
Q 38.578125 51.171875 43.40625 49.125 
L 43.40625 37.796875 
L 38.234375 37.796875 
Q 38.03125 42.828125 34.703125 45.65625 
Q 31.390625 48.484375 25.6875 48.484375 
Q 20.015625 48.484375 17.109375 46.484375 
Q 14.203125 44.484375 14.203125 40.484375 
Q 14.203125 37.203125 16.40625 35.21875 
Q 18.609375 33.25 25.203125 31.203125 
L 32.328125 29 
Q 39.703125 26.703125 42.9375 23.265625 
Q 46.1875 19.828125 46.1875 14.40625 
Q 46.1875 7.03125 40.546875 2.796875 
Q 34.90625 -1.421875 25 -1.421875 
Q 19.96875 -1.421875 15.1875 -0.34375 
Q 10.40625 0.734375 5.609375 2.875 
z
" id="DejaVuSerif-115"/>
     </defs>
     <g transform="translate(164.004297 219.954063)scale(0.11 -0.11)">
      <use xlink:href="#DejaVuSerif-88"/>
      <use x="71.191406" xlink:href="#DejaVuSerif-32"/>
      <use x="102.978516" xlink:href="#DejaVuSerif-118"/>
      <use x="159.472656" xlink:href="#DejaVuSerif-97"/>
      <use x="219.091797" xlink:href="#DejaVuSerif-108"/>
      <use x="251.074219" xlink:href="#DejaVuSerif-117"/>
      <use x="315.478516" xlink:href="#DejaVuSerif-101"/>
      <use x="374.658203" xlink:href="#DejaVuSerif-115"/>
     </g>
    </g>
   </g>
   <g id="matplotlib.axis_2">
    <g id="ytick_1">
     <g id="line2d_9">
      <path clip-path="url(#p99be0631d6)" d="M 47.933438 163.402551 
L 326.933438 163.402551 
" style="fill:none;stroke:#d3d3d3;stroke-linecap:square;stroke-width:0.2;"/>
     </g>
     <g id="line2d_10">
      <defs>
       <path d="M 0 0 
L -3.5 0 
" id="m328401f29d" style="stroke:#000000;stroke-width:0.8;"/>
      </defs>
      <g>
       <use style="stroke:#000000;stroke-width:0.8;" x="47.933438" xlink:href="#m328401f29d" y="163.402551"/>
      </g>
     </g>
     <g id="text_6">
      <!-- 50 -->
      <defs>
       <path d="M 10.796875 72.90625 
L 49.515625 72.90625 
L 49.515625 64.59375 
L 19.828125 64.59375 
L 19.828125 46.734375 
Q 21.96875 47.46875 24.109375 47.828125 
Q 26.265625 48.1875 28.421875 48.1875 
Q 40.625 48.1875 47.75 41.5 
Q 54.890625 34.8125 54.890625 23.390625 
Q 54.890625 11.625 47.5625 5.09375 
Q 40.234375 -1.421875 26.90625 -1.421875 
Q 22.3125 -1.421875 17.546875 -0.640625 
Q 12.796875 0.140625 7.71875 1.703125 
L 7.71875 11.625 
Q 12.109375 9.234375 16.796875 8.0625 
Q 21.484375 6.890625 26.703125 6.890625 
Q 35.15625 6.890625 40.078125 11.328125 
Q 45.015625 15.765625 45.015625 23.390625 
Q 45.015625 31 40.078125 35.4375 
Q 35.15625 39.890625 26.703125 39.890625 
Q 22.75 39.890625 18.8125 39.015625 
Q 14.890625 38.140625 10.796875 36.28125 
z
" id="DejaVuSans-53"/>
      </defs>
      <g transform="translate(28.208438 167.201769)scale(0.1 -0.1)">
       <use xlink:href="#DejaVuSans-53"/>
       <use x="63.623047" xlink:href="#DejaVuSans-48"/>
      </g>
     </g>
    </g>
    <g id="ytick_2">
     <g id="line2d_11">
      <path clip-path="url(#p99be0631d6)" d="M 47.933438 134.510563 
L 326.933438 134.510563 
" style="fill:none;stroke:#d3d3d3;stroke-linecap:square;stroke-width:0.2;"/>
     </g>
     <g id="line2d_12">
      <g>
       <use style="stroke:#000000;stroke-width:0.8;" x="47.933438" xlink:href="#m328401f29d" y="134.510563"/>
      </g>
     </g>
     <g id="text_7">
      <!-- 100 -->
      <defs>
       <path d="M 12.40625 8.296875 
L 28.515625 8.296875 
L 28.515625 63.921875 
L 10.984375 60.40625 
L 10.984375 69.390625 
L 28.421875 72.90625 
L 38.28125 72.90625 
L 38.28125 8.296875 
L 54.390625 8.296875 
L 54.390625 0 
L 12.40625 0 
z
" id="DejaVuSans-49"/>
      </defs>
      <g transform="translate(21.845938 138.309782)scale(0.1 -0.1)">
       <use xlink:href="#DejaVuSans-49"/>
       <use x="63.623047" xlink:href="#DejaVuSans-48"/>
       <use x="127.246094" xlink:href="#DejaVuSans-48"/>
      </g>
     </g>
    </g>
    <g id="ytick_3">
     <g id="line2d_13">
      <path clip-path="url(#p99be0631d6)" d="M 47.933438 105.618575 
L 326.933438 105.618575 
" style="fill:none;stroke:#d3d3d3;stroke-linecap:square;stroke-width:0.2;"/>
     </g>
     <g id="line2d_14">
      <g>
       <use style="stroke:#000000;stroke-width:0.8;" x="47.933438" xlink:href="#m328401f29d" y="105.618575"/>
      </g>
     </g>
     <g id="text_8">
      <!-- 150 -->
      <g transform="translate(21.845938 109.417794)scale(0.1 -0.1)">
       <use xlink:href="#DejaVuSans-49"/>
       <use x="63.623047" xlink:href="#DejaVuSans-53"/>
       <use x="127.246094" xlink:href="#DejaVuSans-48"/>
      </g>
     </g>
    </g>
    <g id="ytick_4">
     <g id="line2d_15">
      <path clip-path="url(#p99be0631d6)" d="M 47.933438 76.726587 
L 326.933438 76.726587 
" style="fill:none;stroke:#d3d3d3;stroke-linecap:square;stroke-width:0.2;"/>
     </g>
     <g id="line2d_16">
      <g>
       <use style="stroke:#000000;stroke-width:0.8;" x="47.933438" xlink:href="#m328401f29d" y="76.726587"/>
      </g>
     </g>
     <g id="text_9">
      <!-- 200 -->
      <g transform="translate(21.845938 80.525806)scale(0.1 -0.1)">
       <use xlink:href="#DejaVuSans-50"/>
       <use x="63.623047" xlink:href="#DejaVuSans-48"/>
       <use x="127.246094" xlink:href="#DejaVuSans-48"/>
      </g>
     </g>
    </g>
    <g id="ytick_5">
     <g id="line2d_17">
      <path clip-path="url(#p99be0631d6)" d="M 47.933438 47.8346 
L 326.933438 47.8346 
" style="fill:none;stroke:#d3d3d3;stroke-linecap:square;stroke-width:0.2;"/>
     </g>
     <g id="line2d_18">
      <g>
       <use style="stroke:#000000;stroke-width:0.8;" x="47.933438" xlink:href="#m328401f29d" y="47.8346"/>
      </g>
     </g>
     <g id="text_10">
      <!-- 250 -->
      <g transform="translate(21.845938 51.633818)scale(0.1 -0.1)">
       <use xlink:href="#DejaVuSans-50"/>
       <use x="63.623047" xlink:href="#DejaVuSans-53"/>
       <use x="127.246094" xlink:href="#DejaVuSans-48"/>
      </g>
     </g>
    </g>
    <g id="text_11">
     <!-- A values -->
     <defs>
      <path d="M 20.015625 26.421875 
L 46.78125 26.421875 
L 33.40625 61.078125 
z
M -0.59375 0 
L -0.59375 5.171875 
L 5.8125 5.171875 
L 31.78125 72.90625 
L 39.984375 72.90625 
L 66.015625 5.171875 
L 73.1875 5.171875 
L 73.1875 0 
L 46.6875 0 
L 46.6875 5.171875 
L 54.78125 5.171875 
L 48.6875 21.1875 
L 18.015625 21.1875 
L 11.921875 5.171875 
L 19.921875 5.171875 
L 19.921875 0 
z
" id="DejaVuSerif-65"/>
     </defs>
     <g transform="translate(15.558281 131.243516)rotate(-90)scale(0.11 -0.11)">
      <use xlink:href="#DejaVuSerif-65"/>
      <use x="72.216797" xlink:href="#DejaVuSerif-32"/>
      <use x="104.003906" xlink:href="#DejaVuSerif-118"/>
      <use x="160.498047" xlink:href="#DejaVuSerif-97"/>
      <use x="220.117188" xlink:href="#DejaVuSerif-108"/>
      <use x="252.099609" xlink:href="#DejaVuSerif-117"/>
      <use x="316.503906" xlink:href="#DejaVuSerif-101"/>
      <use x="375.683594" xlink:href="#DejaVuSerif-115"/>
     </g>
    </g>
   </g>
   <g id="patch_3">
    <path d="M 47.933438 190.917656 
L 47.933438 24.597656 
" style="fill:none;stroke:#000000;stroke-linecap:square;stroke-linejoin:miter;stroke-width:0.8;"/>
   </g>
   <g id="patch_4">
    <path d="M 326.933438 190.917656 
L 326.933438 24.597656 
" style="fill:none;stroke:#000000;stroke-linecap:square;stroke-linejoin:miter;stroke-width:0.8;"/>
   </g>
   <g id="patch_5">
    <path d="M 47.933438 190.917656 
L 326.933438 190.917656 
" style="fill:none;stroke:#000000;stroke-linecap:square;stroke-linejoin:miter;stroke-width:0.8;"/>
   </g>
   <g id="patch_6">
    <path d="M 47.933438 24.597656 
L 326.933438 24.597656 
" style="fill:none;stroke:#000000;stroke-linecap:square;stroke-linejoin:miter;stroke-width:0.8;"/>
   </g>
   <g id="text_12">
    <!-- X vs A based on color group -->
    <defs>
     <path d="M 11.53125 5.171875 
L 11.53125 70.796875 
L 2.875 70.796875 
L 2.875 75.984375 
L 20.515625 75.984375 
L 20.515625 43.796875 
Q 23.140625 48.6875 27.21875 51 
Q 31.296875 53.328125 37.3125 53.328125 
Q 46.875 53.328125 52.921875 45.75 
Q 58.984375 38.1875 58.984375 25.984375 
Q 58.984375 13.765625 52.921875 6.171875 
Q 46.875 -1.421875 37.3125 -1.421875 
Q 31.296875 -1.421875 27.21875 0.890625 
Q 23.140625 3.21875 20.515625 8.109375 
L 20.515625 0 
L 2.875 0 
L 2.875 5.171875 
z
M 20.515625 23.390625 
Q 20.515625 14.015625 24.09375 9.109375 
Q 27.6875 4.203125 34.515625 4.203125 
Q 41.40625 4.203125 44.9375 9.71875 
Q 48.484375 15.234375 48.484375 25.984375 
Q 48.484375 36.765625 44.9375 42.234375 
Q 41.40625 47.703125 34.515625 47.703125 
Q 27.6875 47.703125 24.09375 42.765625 
Q 20.515625 37.84375 20.515625 28.515625 
z
" id="DejaVuSerif-98"/>
     <path d="M 52.484375 5.171875 
L 61.078125 5.171875 
L 61.078125 0 
L 43.5 0 
L 43.5 8.109375 
Q 40.875 3.21875 36.796875 0.890625 
Q 32.71875 -1.421875 26.703125 -1.421875 
Q 17.140625 -1.421875 11.0625 6.171875 
Q 4.984375 13.765625 4.984375 25.984375 
Q 4.984375 38.1875 11.03125 45.75 
Q 17.09375 53.328125 26.703125 53.328125 
Q 32.71875 53.328125 36.796875 51 
Q 40.875 48.6875 43.5 43.796875 
L 43.5 70.796875 
L 35.015625 70.796875 
L 35.015625 75.984375 
L 52.484375 75.984375 
z
M 43.5 23.390625 
L 43.5 28.515625 
Q 43.5 37.84375 39.90625 42.765625 
Q 36.328125 47.703125 29.5 47.703125 
Q 22.5625 47.703125 19.015625 42.234375 
Q 15.484375 36.765625 15.484375 25.984375 
Q 15.484375 15.234375 19.015625 9.71875 
Q 22.5625 4.203125 29.5 4.203125 
Q 36.328125 4.203125 39.90625 9.109375 
Q 43.5 14.015625 43.5 23.390625 
z
" id="DejaVuSerif-100"/>
     <path d="M 30.078125 3.421875 
Q 37.3125 3.421875 40.984375 9.125 
Q 44.671875 14.84375 44.671875 25.984375 
Q 44.671875 37.109375 40.984375 42.796875 
Q 37.3125 48.484375 30.078125 48.484375 
Q 22.859375 48.484375 19.171875 42.796875 
Q 15.484375 37.109375 15.484375 25.984375 
Q 15.484375 14.84375 19.1875 9.125 
Q 22.90625 3.421875 30.078125 3.421875 
z
M 30.078125 -1.421875 
Q 18.75 -1.421875 11.859375 6.078125 
Q 4.984375 13.578125 4.984375 25.984375 
Q 4.984375 38.375 11.84375 45.84375 
Q 18.703125 53.328125 30.078125 53.328125 
Q 41.453125 53.328125 48.3125 45.84375 
Q 55.171875 38.375 55.171875 25.984375 
Q 55.171875 13.578125 48.3125 6.078125 
Q 41.453125 -1.421875 30.078125 -1.421875 
z
" id="DejaVuSerif-111"/>
     <path d="M 4.109375 0 
L 4.109375 5.171875 
L 12.203125 5.171875 
L 12.203125 46.6875 
L 3.609375 46.6875 
L 3.609375 51.90625 
L 21.1875 51.90625 
L 21.1875 42.671875 
Q 23.6875 47.953125 27.65625 50.640625 
Q 31.640625 53.328125 36.921875 53.328125 
Q 45.515625 53.328125 49.5625 48.390625 
Q 53.609375 43.453125 53.609375 33.015625 
L 53.609375 5.171875 
L 61.625 5.171875 
L 61.625 0 
L 36.8125 0 
L 36.8125 5.171875 
L 44.578125 5.171875 
L 44.578125 30.171875 
Q 44.578125 39.703125 42.234375 43.234375 
Q 39.890625 46.78125 33.984375 46.78125 
Q 27.734375 46.78125 24.453125 42.203125 
Q 21.1875 37.640625 21.1875 28.90625 
L 21.1875 5.171875 
L 29 5.171875 
L 29 0 
z
" id="DejaVuSerif-110"/>
     <path d="M 51.421875 15.578125 
Q 49.515625 7.28125 44.09375 2.921875 
Q 38.671875 -1.421875 30.078125 -1.421875 
Q 18.75 -1.421875 11.859375 6.078125 
Q 4.984375 13.578125 4.984375 25.984375 
Q 4.984375 38.421875 11.859375 45.875 
Q 18.75 53.328125 30.078125 53.328125 
Q 35.015625 53.328125 39.890625 52.171875 
Q 44.78125 51.03125 49.703125 48.6875 
L 49.703125 35.40625 
L 44.484375 35.40625 
Q 43.453125 42.234375 40.015625 45.359375 
Q 36.578125 48.484375 30.171875 48.484375 
Q 22.90625 48.484375 19.1875 42.84375 
Q 15.484375 37.203125 15.484375 25.984375 
Q 15.484375 14.75 19.171875 9.078125 
Q 22.859375 3.421875 30.171875 3.421875 
Q 35.984375 3.421875 39.453125 6.4375 
Q 42.921875 9.46875 44.1875 15.578125 
z
" id="DejaVuSerif-99"/>
     <path d="M 47.796875 52 
L 47.796875 39.015625 
L 42.625 39.015625 
Q 42.390625 42.875 40.484375 44.78125 
Q 38.578125 46.6875 34.90625 46.6875 
Q 28.265625 46.6875 24.71875 42.09375 
Q 21.1875 37.5 21.1875 28.90625 
L 21.1875 5.171875 
L 31.59375 5.171875 
L 31.59375 0 
L 4.109375 0 
L 4.109375 5.171875 
L 12.203125 5.171875 
L 12.203125 46.78125 
L 3.609375 46.78125 
L 3.609375 51.90625 
L 21.1875 51.90625 
L 21.1875 42.671875 
Q 23.828125 48.09375 27.96875 50.703125 
Q 32.125 53.328125 38.09375 53.328125 
Q 40.28125 53.328125 42.703125 52.984375 
Q 45.125 52.640625 47.796875 52 
z
" id="DejaVuSerif-114"/>
     <path d="M 52.484375 46.6875 
L 52.484375 1.125 
Q 52.484375 -10.0625 46.328125 -16.140625 
Q 40.1875 -22.21875 28.8125 -22.21875 
Q 23.6875 -22.21875 19 -21.28125 
Q 14.3125 -20.359375 10.015625 -18.5 
L 10.015625 -7.625 
L 14.703125 -7.625 
Q 15.578125 -12.703125 18.84375 -15.046875 
Q 22.125 -17.390625 28.21875 -17.390625 
Q 36.140625 -17.390625 39.8125 -12.921875 
Q 43.5 -8.453125 43.5 1.125 
L 43.5 8.109375 
Q 40.875 3.21875 36.796875 0.890625 
Q 32.71875 -1.421875 26.703125 -1.421875 
Q 17.140625 -1.421875 11.0625 6.171875 
Q 4.984375 13.765625 4.984375 25.984375 
Q 4.984375 38.1875 11.03125 45.75 
Q 17.09375 53.328125 26.703125 53.328125 
Q 32.71875 53.328125 36.796875 51 
Q 40.875 48.6875 43.5 43.796875 
L 43.5 51.90625 
L 61.078125 51.90625 
L 61.078125 46.6875 
z
M 43.5 28.515625 
Q 43.5 37.84375 39.90625 42.765625 
Q 36.328125 47.703125 29.5 47.703125 
Q 22.5625 47.703125 19.015625 42.234375 
Q 15.484375 36.765625 15.484375 25.984375 
Q 15.484375 15.234375 19.015625 9.71875 
Q 22.5625 4.203125 29.5 4.203125 
Q 36.328125 4.203125 39.90625 9.109375 
Q 43.5 14.015625 43.5 23.390625 
z
" id="DejaVuSerif-103"/>
     <path d="M 20.515625 28.515625 
L 20.515625 23.390625 
Q 20.515625 14.015625 24.09375 9.109375 
Q 27.6875 4.203125 34.515625 4.203125 
Q 41.40625 4.203125 44.9375 9.71875 
Q 48.484375 15.234375 48.484375 25.984375 
Q 48.484375 36.765625 44.9375 42.234375 
Q 41.40625 47.703125 34.515625 47.703125 
Q 27.6875 47.703125 24.09375 42.765625 
Q 20.515625 37.84375 20.515625 28.515625 
z
M 11.53125 46.6875 
L 2.875 46.6875 
L 2.875 51.90625 
L 20.515625 51.90625 
L 20.515625 43.796875 
Q 23.140625 48.6875 27.21875 51 
Q 31.296875 53.328125 37.3125 53.328125 
Q 46.875 53.328125 52.921875 45.75 
Q 58.984375 38.1875 58.984375 25.984375 
Q 58.984375 13.765625 52.921875 6.171875 
Q 46.875 -1.421875 37.3125 -1.421875 
Q 31.296875 -1.421875 27.21875 0.890625 
Q 23.140625 3.21875 20.515625 8.109375 
L 20.515625 -15.578125 
L 29 -15.578125 
L 29 -20.796875 
L 2.875 -20.796875 
L 2.875 -15.578125 
L 11.53125 -15.578125 
z
" id="DejaVuSerif-112"/>
    </defs>
    <g transform="translate(47.933438 18.597656)scale(0.15 -0.15)">
     <use xlink:href="#DejaVuSerif-88"/>
     <use x="71.191406" xlink:href="#DejaVuSerif-32"/>
     <use x="102.978516" xlink:href="#DejaVuSerif-118"/>
     <use x="159.472656" xlink:href="#DejaVuSerif-115"/>
     <use x="210.791016" xlink:href="#DejaVuSerif-32"/>
     <use x="242.578125" xlink:href="#DejaVuSerif-65"/>
     <use x="314.794922" xlink:href="#DejaVuSerif-32"/>
     <use x="346.582031" xlink:href="#DejaVuSerif-98"/>
     <use x="410.595703" xlink:href="#DejaVuSerif-97"/>
     <use x="470.214844" xlink:href="#DejaVuSerif-115"/>
     <use x="521.533203" xlink:href="#DejaVuSerif-101"/>
     <use x="580.712891" xlink:href="#DejaVuSerif-100"/>
     <use x="644.726562" xlink:href="#DejaVuSerif-32"/>
     <use x="676.513672" xlink:href="#DejaVuSerif-111"/>
     <use x="736.71875" xlink:href="#DejaVuSerif-110"/>
     <use x="801.123047" xlink:href="#DejaVuSerif-32"/>
     <use x="832.910156" xlink:href="#DejaVuSerif-99"/>
     <use x="888.916016" xlink:href="#DejaVuSerif-111"/>
     <use x="949.121094" xlink:href="#DejaVuSerif-108"/>
     <use x="981.103516" xlink:href="#DejaVuSerif-111"/>
     <use x="1041.308594" xlink:href="#DejaVuSerif-114"/>
     <use x="1089.111328" xlink:href="#DejaVuSerif-32"/>
     <use x="1120.898438" xlink:href="#DejaVuSerif-103"/>
     <use x="1184.912109" xlink:href="#DejaVuSerif-114"/>
     <use x="1232.714844" xlink:href="#DejaVuSerif-111"/>
     <use x="1292.919922" xlink:href="#DejaVuSerif-117"/>
     <use x="1357.324219" xlink:href="#DejaVuSerif-112"/>
    </g>
   </g>
   <g id="legend_1">
    <g id="patch_7">
     <path d="M 54.933438 91.310156 
L 116.033437 91.310156 
Q 118.033437 91.310156 118.033437 89.310156 
L 118.033437 31.597656 
Q 118.033437 29.597656 116.033437 29.597656 
L 54.933438 29.597656 
Q 52.933438 29.597656 52.933438 31.597656 
L 52.933438 89.310156 
Q 52.933438 91.310156 54.933438 91.310156 
z
" style="fill:#d3d3d3;opacity:0.8;stroke:#000000;stroke-linejoin:miter;"/>
    </g>
    <g id="PathCollection_5">
     <g>
      <use style="fill:#9acd32;stroke:#9acd32;" x="66.933437" xlink:href="#m4830e4493a" y="38.571094"/>
     </g>
    </g>
    <g id="text_13">
     <!-- green -->
     <defs>
      <path d="M 45.40625 27.984375 
Q 45.40625 37.75 41.375 43.109375 
Q 37.359375 48.484375 30.078125 48.484375 
Q 22.859375 48.484375 18.828125 43.109375 
Q 14.796875 37.75 14.796875 27.984375 
Q 14.796875 18.265625 18.828125 12.890625 
Q 22.859375 7.515625 30.078125 7.515625 
Q 37.359375 7.515625 41.375 12.890625 
Q 45.40625 18.265625 45.40625 27.984375 
z
M 54.390625 6.78125 
Q 54.390625 -7.171875 48.1875 -13.984375 
Q 42 -20.796875 29.203125 -20.796875 
Q 24.46875 -20.796875 20.265625 -20.09375 
Q 16.0625 -19.390625 12.109375 -17.921875 
L 12.109375 -9.1875 
Q 16.0625 -11.328125 19.921875 -12.34375 
Q 23.78125 -13.375 27.78125 -13.375 
Q 36.625 -13.375 41.015625 -8.765625 
Q 45.40625 -4.15625 45.40625 5.171875 
L 45.40625 9.625 
Q 42.625 4.78125 38.28125 2.390625 
Q 33.9375 0 27.875 0 
Q 17.828125 0 11.671875 7.65625 
Q 5.515625 15.328125 5.515625 27.984375 
Q 5.515625 40.671875 11.671875 48.328125 
Q 17.828125 56 27.875 56 
Q 33.9375 56 38.28125 53.609375 
Q 42.625 51.21875 45.40625 46.390625 
L 45.40625 54.6875 
L 54.390625 54.6875 
z
" id="DejaVuSans-103"/>
      <path d="M 41.109375 46.296875 
Q 39.59375 47.171875 37.8125 47.578125 
Q 36.03125 48 33.890625 48 
Q 26.265625 48 22.1875 43.046875 
Q 18.109375 38.09375 18.109375 28.8125 
L 18.109375 0 
L 9.078125 0 
L 9.078125 54.6875 
L 18.109375 54.6875 
L 18.109375 46.1875 
Q 20.953125 51.171875 25.484375 53.578125 
Q 30.03125 56 36.53125 56 
Q 37.453125 56 38.578125 55.875 
Q 39.703125 55.765625 41.0625 55.515625 
z
" id="DejaVuSans-114"/>
      <path d="M 56.203125 29.59375 
L 56.203125 25.203125 
L 14.890625 25.203125 
Q 15.484375 15.921875 20.484375 11.0625 
Q 25.484375 6.203125 34.421875 6.203125 
Q 39.59375 6.203125 44.453125 7.46875 
Q 49.3125 8.734375 54.109375 11.28125 
L 54.109375 2.78125 
Q 49.265625 0.734375 44.1875 -0.34375 
Q 39.109375 -1.421875 33.890625 -1.421875 
Q 20.796875 -1.421875 13.15625 6.1875 
Q 5.515625 13.8125 5.515625 26.8125 
Q 5.515625 40.234375 12.765625 48.109375 
Q 20.015625 56 32.328125 56 
Q 43.359375 56 49.78125 48.890625 
Q 56.203125 41.796875 56.203125 29.59375 
z
M 47.21875 32.234375 
Q 47.125 39.59375 43.09375 43.984375 
Q 39.0625 48.390625 32.421875 48.390625 
Q 24.90625 48.390625 20.390625 44.140625 
Q 15.875 39.890625 15.1875 32.171875 
z
" id="DejaVuSans-101"/>
      <path d="M 54.890625 33.015625 
L 54.890625 0 
L 45.90625 0 
L 45.90625 32.71875 
Q 45.90625 40.484375 42.875 44.328125 
Q 39.84375 48.1875 33.796875 48.1875 
Q 26.515625 48.1875 22.3125 43.546875 
Q 18.109375 38.921875 18.109375 30.90625 
L 18.109375 0 
L 9.078125 0 
L 9.078125 54.6875 
L 18.109375 54.6875 
L 18.109375 46.1875 
Q 21.34375 51.125 25.703125 53.5625 
Q 30.078125 56 35.796875 56 
Q 45.21875 56 50.046875 50.171875 
Q 54.890625 44.34375 54.890625 33.015625 
z
" id="DejaVuSans-110"/>
     </defs>
     <g transform="translate(84.933437 41.196094)scale(0.1 -0.1)">
      <use xlink:href="#DejaVuSans-103"/>
      <use x="63.476562" xlink:href="#DejaVuSans-114"/>
      <use x="104.558594" xlink:href="#DejaVuSans-101"/>
      <use x="166.082031" xlink:href="#DejaVuSans-101"/>
      <use x="227.605469" xlink:href="#DejaVuSans-110"/>
     </g>
    </g>
    <g id="PathCollection_6">
     <g>
      <use style="fill:#00bfff;stroke:#00bfff;" x="66.933437" xlink:href="#m4d5d1fbac6" y="53.249219"/>
     </g>
    </g>
    <g id="text_14">
     <!-- blue -->
     <defs>
      <path d="M 48.6875 27.296875 
Q 48.6875 37.203125 44.609375 42.84375 
Q 40.53125 48.484375 33.40625 48.484375 
Q 26.265625 48.484375 22.1875 42.84375 
Q 18.109375 37.203125 18.109375 27.296875 
Q 18.109375 17.390625 22.1875 11.75 
Q 26.265625 6.109375 33.40625 6.109375 
Q 40.53125 6.109375 44.609375 11.75 
Q 48.6875 17.390625 48.6875 27.296875 
z
M 18.109375 46.390625 
Q 20.953125 51.265625 25.265625 53.625 
Q 29.59375 56 35.59375 56 
Q 45.5625 56 51.78125 48.09375 
Q 58.015625 40.1875 58.015625 27.296875 
Q 58.015625 14.40625 51.78125 6.484375 
Q 45.5625 -1.421875 35.59375 -1.421875 
Q 29.59375 -1.421875 25.265625 0.953125 
Q 20.953125 3.328125 18.109375 8.203125 
L 18.109375 0 
L 9.078125 0 
L 9.078125 75.984375 
L 18.109375 75.984375 
z
" id="DejaVuSans-98"/>
      <path d="M 9.421875 75.984375 
L 18.40625 75.984375 
L 18.40625 0 
L 9.421875 0 
z
" id="DejaVuSans-108"/>
      <path d="M 8.5 21.578125 
L 8.5 54.6875 
L 17.484375 54.6875 
L 17.484375 21.921875 
Q 17.484375 14.15625 20.5 10.265625 
Q 23.53125 6.390625 29.59375 6.390625 
Q 36.859375 6.390625 41.078125 11.03125 
Q 45.3125 15.671875 45.3125 23.6875 
L 45.3125 54.6875 
L 54.296875 54.6875 
L 54.296875 0 
L 45.3125 0 
L 45.3125 8.40625 
Q 42.046875 3.421875 37.71875 1 
Q 33.40625 -1.421875 27.6875 -1.421875 
Q 18.265625 -1.421875 13.375 4.4375 
Q 8.5 10.296875 8.5 21.578125 
z
M 31.109375 56 
z
" id="DejaVuSans-117"/>
     </defs>
     <g transform="translate(84.933437 55.874219)scale(0.1 -0.1)">
      <use xlink:href="#DejaVuSans-98"/>
      <use x="63.476562" xlink:href="#DejaVuSans-108"/>
      <use x="91.259766" xlink:href="#DejaVuSans-117"/>
      <use x="154.638672" xlink:href="#DejaVuSans-101"/>
     </g>
    </g>
    <g id="PathCollection_7">
     <g>
      <use style="fill:#ff69b4;stroke:#ff69b4;" x="66.933437" xlink:href="#mdb556b5599" y="67.927344"/>
     </g>
    </g>
    <g id="text_15">
     <!-- pink -->
     <defs>
      <path d="M 18.109375 8.203125 
L 18.109375 -20.796875 
L 9.078125 -20.796875 
L 9.078125 54.6875 
L 18.109375 54.6875 
L 18.109375 46.390625 
Q 20.953125 51.265625 25.265625 53.625 
Q 29.59375 56 35.59375 56 
Q 45.5625 56 51.78125 48.09375 
Q 58.015625 40.1875 58.015625 27.296875 
Q 58.015625 14.40625 51.78125 6.484375 
Q 45.5625 -1.421875 35.59375 -1.421875 
Q 29.59375 -1.421875 25.265625 0.953125 
Q 20.953125 3.328125 18.109375 8.203125 
z
M 48.6875 27.296875 
Q 48.6875 37.203125 44.609375 42.84375 
Q 40.53125 48.484375 33.40625 48.484375 
Q 26.265625 48.484375 22.1875 42.84375 
Q 18.109375 37.203125 18.109375 27.296875 
Q 18.109375 17.390625 22.1875 11.75 
Q 26.265625 6.109375 33.40625 6.109375 
Q 40.53125 6.109375 44.609375 11.75 
Q 48.6875 17.390625 48.6875 27.296875 
z
" id="DejaVuSans-112"/>
      <path d="M 9.421875 54.6875 
L 18.40625 54.6875 
L 18.40625 0 
L 9.421875 0 
z
M 9.421875 75.984375 
L 18.40625 75.984375 
L 18.40625 64.59375 
L 9.421875 64.59375 
z
" id="DejaVuSans-105"/>
      <path d="M 9.078125 75.984375 
L 18.109375 75.984375 
L 18.109375 31.109375 
L 44.921875 54.6875 
L 56.390625 54.6875 
L 27.390625 29.109375 
L 57.625 0 
L 45.90625 0 
L 18.109375 26.703125 
L 18.109375 0 
L 9.078125 0 
z
" id="DejaVuSans-107"/>
     </defs>
     <g transform="translate(84.933437 70.552344)scale(0.1 -0.1)">
      <use xlink:href="#DejaVuSans-112"/>
      <use x="63.476562" xlink:href="#DejaVuSans-105"/>
      <use x="91.259766" xlink:href="#DejaVuSans-110"/>
      <use x="154.638672" xlink:href="#DejaVuSans-107"/>
     </g>
    </g>
    <g id="PathCollection_8">
     <g>
      <use style="fill:#ff6347;stroke:#ff6347;" x="66.933437" xlink:href="#md42b30388a" y="82.605469"/>
     </g>
    </g>
    <g id="text_16">
     <!-- red -->
     <defs>
      <path d="M 45.40625 46.390625 
L 45.40625 75.984375 
L 54.390625 75.984375 
L 54.390625 0 
L 45.40625 0 
L 45.40625 8.203125 
Q 42.578125 3.328125 38.25 0.953125 
Q 33.9375 -1.421875 27.875 -1.421875 
Q 17.96875 -1.421875 11.734375 6.484375 
Q 5.515625 14.40625 5.515625 27.296875 
Q 5.515625 40.1875 11.734375 48.09375 
Q 17.96875 56 27.875 56 
Q 33.9375 56 38.25 53.625 
Q 42.578125 51.265625 45.40625 46.390625 
z
M 14.796875 27.296875 
Q 14.796875 17.390625 18.875 11.75 
Q 22.953125 6.109375 30.078125 6.109375 
Q 37.203125 6.109375 41.296875 11.75 
Q 45.40625 17.390625 45.40625 27.296875 
Q 45.40625 37.203125 41.296875 42.84375 
Q 37.203125 48.484375 30.078125 48.484375 
Q 22.953125 48.484375 18.875 42.84375 
Q 14.796875 37.203125 14.796875 27.296875 
z
" id="DejaVuSans-100"/>
     </defs>
     <g transform="translate(84.933437 85.230469)scale(0.1 -0.1)">
      <use xlink:href="#DejaVuSans-114"/>
      <use x="41.082031" xlink:href="#DejaVuSans-101"/>
      <use x="102.605469" xlink:href="#DejaVuSans-100"/>
     </g>
    </g>
   </g>
  </g>
 </g>
 <defs>
  <clipPath id="p99be0631d6">
   <rect height="166.32" width="279" x="47.933438" y="24.597656"/>
  </clipPath>
 </defs>
</svg>
