<?xml version="1.0" encoding="utf-8" standalone="no"?>
<!DOCTYPE svg PUBLIC "-//W3C//DTD SVG 1.1//EN"
  "http://www.w3.org/Graphics/SVG/1.1/DTD/svg11.dtd">
<!-- Created with matplotlib (https://matplotlib.org/) -->
<svg height="252.018125pt" version="1.1" viewBox="0 0 378.7875 252.018125" width="378.7875pt" xmlns="http://www.w3.org/2000/svg" xmlns:xlink="http://www.w3.org/1999/xlink">
 <defs>
  <style type="text/css">
*{stroke-linecap:butt;stroke-linejoin:round;}
  </style>
 </defs>
 <g id="figure_1">
  <g id="patch_1">
   <path d="M 0 252.018125 
L 378.7875 252.018125 
L 378.7875 0 
L 0 0 
z
" style="fill:none;"/>
  </g>
  <g id="axes_1">
   <g id="patch_2">
    <path d="M 33.2875 228.14 
L 368.0875 228.14 
L 368.0875 10.7 
L 33.2875 10.7 
z
" style="fill:#ffffff;"/>
   </g>
   <g id="PathCollection_1">
    <defs>
     <path d="M 0 3 
C 0.795609 3 1.55874 2.683901 2.12132 2.12132 
C 2.683901 1.55874 3 0.795609 3 0 
C 3 -0.795609 2.683901 -1.55874 2.12132 -2.12132 
C 1.55874 -2.683901 0.795609 -3 0 -3 
C -0.795609 -3 -1.55874 -2.683901 -2.12132 -2.12132 
C -2.683901 -1.55874 -3 -0.795609 -3 0 
C -3 0.795609 -2.683901 1.55874 -2.12132 2.12132 
C -1.55874 2.683901 -0.795609 3 0 3 
z
" id="md67ff7e0d5" style="stroke:#1f77b4;"/>
    </defs>
    <g clip-path="url(#p42a61fc171)">
     <use style="fill:#1f77b4;stroke:#1f77b4;" x="151.997637" xlink:href="#md67ff7e0d5" y="151.043737"/>
     <use style="fill:#1f77b4;stroke:#1f77b4;" x="254.857096" xlink:href="#md67ff7e0d5" y="84.237214"/>
     <use style="fill:#1f77b4;stroke:#1f77b4;" x="198.853842" xlink:href="#md67ff7e0d5" y="120.610948"/>
     <use style="fill:#1f77b4;stroke:#1f77b4;" x="233.673261" xlink:href="#md67ff7e0d5" y="97.995972"/>
     <use style="fill:#1f77b4;stroke:#1f77b4;" x="296.342714" xlink:href="#md67ff7e0d5" y="57.292585"/>
     <use style="fill:#1f77b4;stroke:#1f77b4;" x="239.322597" xlink:href="#md67ff7e0d5" y="94.326766"/>
     <use style="fill:#1f77b4;stroke:#1f77b4;" x="296.69954" xlink:href="#md67ff7e0d5" y="57.060829"/>
     <use style="fill:#1f77b4;stroke:#1f77b4;" x="262.394988" xlink:href="#md67ff7e0d5" y="79.341404"/>
     <use style="fill:#1f77b4;stroke:#1f77b4;" x="305.714412" xlink:href="#md67ff7e0d5" y="51.205731"/>
     <use style="fill:#1f77b4;stroke:#1f77b4;" x="128.636696" xlink:href="#md67ff7e0d5" y="166.21651"/>
     <use style="fill:#1f77b4;stroke:#1f77b4;" x="146.623816" xlink:href="#md67ff7e0d5" y="154.533997"/>
     <use style="fill:#1f77b4;stroke:#1f77b4;" x="113.466985" xlink:href="#md67ff7e0d5" y="176.069135"/>
     <use style="fill:#1f77b4;stroke:#1f77b4;" x="241.462974" xlink:href="#md67ff7e0d5" y="92.936605"/>
     <use style="fill:#1f77b4;stroke:#1f77b4;" x="184.905238" xlink:href="#md67ff7e0d5" y="129.670472"/>
     <use style="fill:#1f77b4;stroke:#1f77b4;" x="266.080227" xlink:href="#md67ff7e0d5" y="76.947866"/>
     <use style="fill:#1f77b4;stroke:#1f77b4;" x="224.240009" xlink:href="#md67ff7e0d5" y="104.122805"/>
     <use style="fill:#1f77b4;stroke:#1f77b4;" x="210.907059" xlink:href="#md67ff7e0d5" y="112.782465"/>
     <use style="fill:#1f77b4;stroke:#1f77b4;" x="352.837886" xlink:href="#md67ff7e0d5" y="20.599353"/>
     <use style="fill:#1f77b4;stroke:#1f77b4;" x="244.510674" xlink:href="#md67ff7e0d5" y="90.957145"/>
     <use style="fill:#1f77b4;stroke:#1f77b4;" x="200.097805" xlink:href="#md67ff7e0d5" y="119.803003"/>
     <use style="fill:#1f77b4;stroke:#1f77b4;" x="132.93138" xlink:href="#md67ff7e0d5" y="163.427142"/>
     <use style="fill:#1f77b4;stroke:#1f77b4;" x="285.510905" xlink:href="#md67ff7e0d5" y="64.327772"/>
     <use style="fill:#1f77b4;stroke:#1f77b4;" x="268.822611" xlink:href="#md67ff7e0d5" y="75.166706"/>
     <use style="fill:#1f77b4;stroke:#1f77b4;" x="125.70387" xlink:href="#md67ff7e0d5" y="168.121361"/>
     <use style="fill:#1f77b4;stroke:#1f77b4;" x="191.788572" xlink:href="#md67ff7e0d5" y="125.199794"/>
     <use style="fill:#1f77b4;stroke:#1f77b4;" x="218.663106" xlink:href="#md67ff7e0d5" y="107.744966"/>
     <use style="fill:#1f77b4;stroke:#1f77b4;" x="86.98404" xlink:href="#md67ff7e0d5" y="193.269628"/>
     <use style="fill:#1f77b4;stroke:#1f77b4;" x="182.463236" xlink:href="#md67ff7e0d5" y="131.256536"/>
     <use style="fill:#1f77b4;stroke:#1f77b4;" x="300.14072" xlink:href="#md67ff7e0d5" y="54.825806"/>
     <use style="fill:#1f77b4;stroke:#1f77b4;" x="88.666759" xlink:href="#md67ff7e0d5" y="192.176714"/>
     <use style="fill:#1f77b4;stroke:#1f77b4;" x="236.413512" xlink:href="#md67ff7e0d5" y="96.216197"/>
     <use style="fill:#1f77b4;stroke:#1f77b4;" x="334.762887" xlink:href="#md67ff7e0d5" y="32.338943"/>
     <use style="fill:#1f77b4;stroke:#1f77b4;" x="158.410649" xlink:href="#md67ff7e0d5" y="146.878529"/>
     <use style="fill:#1f77b4;stroke:#1f77b4;" x="170.142619" xlink:href="#md67ff7e0d5" y="139.258693"/>
     <use style="fill:#1f77b4;stroke:#1f77b4;" x="217.231493" xlink:href="#md67ff7e0d5" y="108.674788"/>
     <use style="fill:#1f77b4;stroke:#1f77b4;" x="238.059158" xlink:href="#md67ff7e0d5" y="95.147361"/>
     <use style="fill:#1f77b4;stroke:#1f77b4;" x="229.844786" xlink:href="#md67ff7e0d5" y="100.48254"/>
     <use style="fill:#1f77b4;stroke:#1f77b4;" x="95.841094" xlink:href="#md67ff7e0d5" y="187.517032"/>
     <use style="fill:#1f77b4;stroke:#1f77b4;" x="148.374558" xlink:href="#md67ff7e0d5" y="153.396902"/>
     <use style="fill:#1f77b4;stroke:#1f77b4;" x="209.080658" xlink:href="#md67ff7e0d5" y="113.968701"/>
     <use style="fill:#1f77b4;stroke:#1f77b4;" x="179.717936" xlink:href="#md67ff7e0d5" y="133.03959"/>
     <use style="fill:#1f77b4;stroke:#1f77b4;" x="281.836688" xlink:href="#md67ff7e0d5" y="66.714151"/>
     <use style="fill:#1f77b4;stroke:#1f77b4;" x="179.377141" xlink:href="#md67ff7e0d5" y="133.260934"/>
     <use style="fill:#1f77b4;stroke:#1f77b4;" x="176.010193" xlink:href="#md67ff7e0d5" y="135.447744"/>
     <use style="fill:#1f77b4;stroke:#1f77b4;" x="331.73709" xlink:href="#md67ff7e0d5" y="34.304177"/>
     <use style="fill:#1f77b4;stroke:#1f77b4;" x="196.24766" xlink:href="#md67ff7e0d5" y="122.303646"/>
     <use style="fill:#1f77b4;stroke:#1f77b4;" x="133.204038" xlink:href="#md67ff7e0d5" y="163.250052"/>
     <use style="fill:#1f77b4;stroke:#1f77b4;" x="201.808389" xlink:href="#md67ff7e0d5" y="118.69199"/>
     <use style="fill:#1f77b4;stroke:#1f77b4;" x="185.669964" xlink:href="#md67ff7e0d5" y="129.173788"/>
     <use style="fill:#1f77b4;stroke:#1f77b4;" x="251.855017" xlink:href="#md67ff7e0d5" y="86.187044"/>
     <use style="fill:#1f77b4;stroke:#1f77b4;" x="233.76771" xlink:href="#md67ff7e0d5" y="97.934628"/>
     <use style="fill:#1f77b4;stroke:#1f77b4;" x="178.636849" xlink:href="#md67ff7e0d5" y="133.741749"/>
     <use style="fill:#1f77b4;stroke:#1f77b4;" x="175.004046" xlink:href="#md67ff7e0d5" y="136.10123"/>
     <use style="fill:#1f77b4;stroke:#1f77b4;" x="164.770435" xlink:href="#md67ff7e0d5" y="142.747891"/>
     <use style="fill:#1f77b4;stroke:#1f77b4;" x="296.707825" xlink:href="#md67ff7e0d5" y="57.055448"/>
     <use style="fill:#1f77b4;stroke:#1f77b4;" x="343.355475" xlink:href="#md67ff7e0d5" y="26.758115"/>
     <use style="fill:#1f77b4;stroke:#1f77b4;" x="197.93976" xlink:href="#md67ff7e0d5" y="121.204638"/>
     <use style="fill:#1f77b4;stroke:#1f77b4;" x="241.589781" xlink:href="#md67ff7e0d5" y="92.854245"/>
     <use style="fill:#1f77b4;stroke:#1f77b4;" x="227.199278" xlink:href="#md67ff7e0d5" y="102.20078"/>
     <use style="fill:#1f77b4;stroke:#1f77b4;" x="166.058658" xlink:href="#md67ff7e0d5" y="141.911198"/>
     <use style="fill:#1f77b4;stroke:#1f77b4;" x="165.272975" xlink:href="#md67ff7e0d5" y="142.421495"/>
     <use style="fill:#1f77b4;stroke:#1f77b4;" x="168.204983" xlink:href="#md67ff7e0d5" y="140.517175"/>
     <use style="fill:#1f77b4;stroke:#1f77b4;" x="66.984997" xlink:href="#md67ff7e0d5" y="206.258872"/>
     <use style="fill:#1f77b4;stroke:#1f77b4;" x="148.836236" xlink:href="#md67ff7e0d5" y="153.097045"/>
     <use style="fill:#1f77b4;stroke:#1f77b4;" x="233.79033" xlink:href="#md67ff7e0d5" y="97.919936"/>
     <use style="fill:#1f77b4;stroke:#1f77b4;" x="266.683808" xlink:href="#md67ff7e0d5" y="76.555844"/>
     <use style="fill:#1f77b4;stroke:#1f77b4;" x="187.429203" xlink:href="#md67ff7e0d5" y="128.031174"/>
     <use style="fill:#1f77b4;stroke:#1f77b4;" x="175.603017" xlink:href="#md67ff7e0d5" y="135.712202"/>
     <use style="fill:#1f77b4;stroke:#1f77b4;" x="246.867581" xlink:href="#md67ff7e0d5" y="89.426349"/>
     <use style="fill:#1f77b4;stroke:#1f77b4;" x="346.054538" xlink:href="#md67ff7e0d5" y="25.005092"/>
     <use style="fill:#1f77b4;stroke:#1f77b4;" x="136.847868" xlink:href="#md67ff7e0d5" y="160.883409"/>
     <use style="fill:#1f77b4;stroke:#1f77b4;" x="147.629078" xlink:href="#md67ff7e0d5" y="153.881086"/>
     <use style="fill:#1f77b4;stroke:#1f77b4;" x="171.307678" xlink:href="#md67ff7e0d5" y="138.501996"/>
     <use style="fill:#1f77b4;stroke:#1f77b4;" x="240.415654" xlink:href="#md67ff7e0d5" y="93.616832"/>
     <use style="fill:#1f77b4;stroke:#1f77b4;" x="142.052888" xlink:href="#md67ff7e0d5" y="157.502784"/>
     <use style="fill:#1f77b4;stroke:#1f77b4;" x="234.644612" xlink:href="#md67ff7e0d5" y="97.365085"/>
     <use style="fill:#1f77b4;stroke:#1f77b4;" x="151.393665" xlink:href="#md67ff7e0d5" y="151.436013"/>
     <use style="fill:#1f77b4;stroke:#1f77b4;" x="241.421927" xlink:href="#md67ff7e0d5" y="92.963265"/>
     <use style="fill:#1f77b4;stroke:#1f77b4;" x="179.886864" xlink:href="#md67ff7e0d5" y="132.929872"/>
     <use style="fill:#1f77b4;stroke:#1f77b4;" x="171.816208" xlink:href="#md67ff7e0d5" y="138.171709"/>
     <use style="fill:#1f77b4;stroke:#1f77b4;" x="259.152671" xlink:href="#md67ff7e0d5" y="81.447267"/>
     <use style="fill:#1f77b4;stroke:#1f77b4;" x="118.811957" xlink:href="#md67ff7e0d5" y="172.597612"/>
     <use style="fill:#1f77b4;stroke:#1f77b4;" x="148.052329" xlink:href="#md67ff7e0d5" y="153.606188"/>
     <use style="fill:#1f77b4;stroke:#1f77b4;" x="253.131199" xlink:href="#md67ff7e0d5" y="85.358172"/>
     <use style="fill:#1f77b4;stroke:#1f77b4;" x="255.709115" xlink:href="#md67ff7e0d5" y="83.683833"/>
     <use style="fill:#1f77b4;stroke:#1f77b4;" x="216.554377" xlink:href="#md67ff7e0d5" y="109.114571"/>
     <use style="fill:#1f77b4;stroke:#1f77b4;" x="48.537114" xlink:href="#md67ff7e0d5" y="218.240647"/>
     <use style="fill:#1f77b4;stroke:#1f77b4;" x="252.626048" xlink:href="#md67ff7e0d5" y="85.686265"/>
     <use style="fill:#1f77b4;stroke:#1f77b4;" x="226.442879" xlink:href="#md67ff7e0d5" y="102.692056"/>
     <use style="fill:#1f77b4;stroke:#1f77b4;" x="178.219949" xlink:href="#md67ff7e0d5" y="134.012522"/>
     <use style="fill:#1f77b4;stroke:#1f77b4;" x="65.495502" xlink:href="#md67ff7e0d5" y="207.226288"/>
     <use style="fill:#1f77b4;stroke:#1f77b4;" x="260.268866" xlink:href="#md67ff7e0d5" y="80.722306"/>
     <use style="fill:#1f77b4;stroke:#1f77b4;" x="324.695496" xlink:href="#md67ff7e0d5" y="38.877645"/>
     <use style="fill:#1f77b4;stroke:#1f77b4;" x="237.133694" xlink:href="#md67ff7e0d5" y="95.748444"/>
     <use style="fill:#1f77b4;stroke:#1f77b4;" x="295.305476" xlink:href="#md67ff7e0d5" y="57.966265"/>
     <use style="fill:#1f77b4;stroke:#1f77b4;" x="155.847325" xlink:href="#md67ff7e0d5" y="148.54339"/>
     <use style="fill:#1f77b4;stroke:#1f77b4;" x="214.951029" xlink:href="#md67ff7e0d5" y="110.155935"/>
     <use style="fill:#1f77b4;stroke:#1f77b4;" x="156.300587" xlink:href="#md67ff7e0d5" y="148.249"/>
     <use style="fill:#1f77b4;stroke:#1f77b4;" x="123.365907" xlink:href="#md67ff7e0d5" y="169.639852"/>
     <use style="fill:#1f77b4;stroke:#1f77b4;" x="177.659507" xlink:href="#md67ff7e0d5" y="134.376526"/>
    </g>
   </g>
   <g id="matplotlib.axis_1">
    <g id="xtick_1">
     <g id="line2d_1">
      <defs>
       <path d="M 0 0 
L 0 3.5 
" id="mcbd2ec48e7" style="stroke:#000000;stroke-width:0.8;"/>
      </defs>
      <g>
       <use style="stroke:#000000;stroke-width:0.8;" x="96.742253" xlink:href="#mcbd2ec48e7" y="228.14"/>
      </g>
     </g>
     <g id="text_1">
      <!-- 20 -->
      <defs>
       <path d="M 19.1875 8.296875 
L 53.609375 8.296875 
L 53.609375 0 
L 7.328125 0 
L 7.328125 8.296875 
Q 12.9375 14.109375 22.625 23.890625 
Q 32.328125 33.6875 34.8125 36.53125 
Q 39.546875 41.84375 41.421875 45.53125 
Q 43.3125 49.21875 43.3125 52.78125 
Q 43.3125 58.59375 39.234375 62.25 
Q 35.15625 65.921875 28.609375 65.921875 
Q 23.96875 65.921875 18.8125 64.3125 
Q 13.671875 62.703125 7.8125 59.421875 
L 7.8125 69.390625 
Q 13.765625 71.78125 18.9375 73 
Q 24.125 74.21875 28.421875 74.21875 
Q 39.75 74.21875 46.484375 68.546875 
Q 53.21875 62.890625 53.21875 53.421875 
Q 53.21875 48.921875 51.53125 44.890625 
Q 49.859375 40.875 45.40625 35.40625 
Q 44.1875 33.984375 37.640625 27.21875 
Q 31.109375 20.453125 19.1875 8.296875 
z
" id="DejaVuSans-50"/>
       <path d="M 31.78125 66.40625 
Q 24.171875 66.40625 20.328125 58.90625 
Q 16.5 51.421875 16.5 36.375 
Q 16.5 21.390625 20.328125 13.890625 
Q 24.171875 6.390625 31.78125 6.390625 
Q 39.453125 6.390625 43.28125 13.890625 
Q 47.125 21.390625 47.125 36.375 
Q 47.125 51.421875 43.28125 58.90625 
Q 39.453125 66.40625 31.78125 66.40625 
z
M 31.78125 74.21875 
Q 44.046875 74.21875 50.515625 64.515625 
Q 56.984375 54.828125 56.984375 36.375 
Q 56.984375 17.96875 50.515625 8.265625 
Q 44.046875 -1.421875 31.78125 -1.421875 
Q 19.53125 -1.421875 13.0625 8.265625 
Q 6.59375 17.96875 6.59375 36.375 
Q 6.59375 54.828125 13.0625 64.515625 
Q 19.53125 74.21875 31.78125 74.21875 
z
" id="DejaVuSans-48"/>
      </defs>
      <g transform="translate(90.379753 242.738437)scale(0.1 -0.1)">
       <use xlink:href="#DejaVuSans-50"/>
       <use x="63.623047" xlink:href="#DejaVuSans-48"/>
      </g>
     </g>
    </g>
    <g id="xtick_2">
     <g id="line2d_2">
      <g>
       <use style="stroke:#000000;stroke-width:0.8;" x="166.89808" xlink:href="#mcbd2ec48e7" y="228.14"/>
      </g>
     </g>
     <g id="text_2">
      <!-- 40 -->
      <defs>
       <path d="M 37.796875 64.3125 
L 12.890625 25.390625 
L 37.796875 25.390625 
z
M 35.203125 72.90625 
L 47.609375 72.90625 
L 47.609375 25.390625 
L 58.015625 25.390625 
L 58.015625 17.1875 
L 47.609375 17.1875 
L 47.609375 0 
L 37.796875 0 
L 37.796875 17.1875 
L 4.890625 17.1875 
L 4.890625 26.703125 
z
" id="DejaVuSans-52"/>
      </defs>
      <g transform="translate(160.53558 242.738437)scale(0.1 -0.1)">
       <use xlink:href="#DejaVuSans-52"/>
       <use x="63.623047" xlink:href="#DejaVuSans-48"/>
      </g>
     </g>
    </g>
    <g id="xtick_3">
     <g id="line2d_3">
      <g>
       <use style="stroke:#000000;stroke-width:0.8;" x="237.053906" xlink:href="#mcbd2ec48e7" y="228.14"/>
      </g>
     </g>
     <g id="text_3">
      <!-- 60 -->
      <defs>
       <path d="M 33.015625 40.375 
Q 26.375 40.375 22.484375 35.828125 
Q 18.609375 31.296875 18.609375 23.390625 
Q 18.609375 15.53125 22.484375 10.953125 
Q 26.375 6.390625 33.015625 6.390625 
Q 39.65625 6.390625 43.53125 10.953125 
Q 47.40625 15.53125 47.40625 23.390625 
Q 47.40625 31.296875 43.53125 35.828125 
Q 39.65625 40.375 33.015625 40.375 
z
M 52.59375 71.296875 
L 52.59375 62.3125 
Q 48.875 64.0625 45.09375 64.984375 
Q 41.3125 65.921875 37.59375 65.921875 
Q 27.828125 65.921875 22.671875 59.328125 
Q 17.53125 52.734375 16.796875 39.40625 
Q 19.671875 43.65625 24.015625 45.921875 
Q 28.375 48.1875 33.59375 48.1875 
Q 44.578125 48.1875 50.953125 41.515625 
Q 57.328125 34.859375 57.328125 23.390625 
Q 57.328125 12.15625 50.6875 5.359375 
Q 44.046875 -1.421875 33.015625 -1.421875 
Q 20.359375 -1.421875 13.671875 8.265625 
Q 6.984375 17.96875 6.984375 36.375 
Q 6.984375 53.65625 15.1875 63.9375 
Q 23.390625 74.21875 37.203125 74.21875 
Q 40.921875 74.21875 44.703125 73.484375 
Q 48.484375 72.75 52.59375 71.296875 
z
" id="DejaVuSans-54"/>
      </defs>
      <g transform="translate(230.691406 242.738437)scale(0.1 -0.1)">
       <use xlink:href="#DejaVuSans-54"/>
       <use x="63.623047" xlink:href="#DejaVuSans-48"/>
      </g>
     </g>
    </g>
    <g id="xtick_4">
     <g id="line2d_4">
      <g>
       <use style="stroke:#000000;stroke-width:0.8;" x="307.209732" xlink:href="#mcbd2ec48e7" y="228.14"/>
      </g>
     </g>
     <g id="text_4">
      <!-- 80 -->
      <defs>
       <path d="M 31.78125 34.625 
Q 24.75 34.625 20.71875 30.859375 
Q 16.703125 27.09375 16.703125 20.515625 
Q 16.703125 13.921875 20.71875 10.15625 
Q 24.75 6.390625 31.78125 6.390625 
Q 38.8125 6.390625 42.859375 10.171875 
Q 46.921875 13.96875 46.921875 20.515625 
Q 46.921875 27.09375 42.890625 30.859375 
Q 38.875 34.625 31.78125 34.625 
z
M 21.921875 38.8125 
Q 15.578125 40.375 12.03125 44.71875 
Q 8.5 49.078125 8.5 55.328125 
Q 8.5 64.0625 14.71875 69.140625 
Q 20.953125 74.21875 31.78125 74.21875 
Q 42.671875 74.21875 48.875 69.140625 
Q 55.078125 64.0625 55.078125 55.328125 
Q 55.078125 49.078125 51.53125 44.71875 
Q 48 40.375 41.703125 38.8125 
Q 48.828125 37.15625 52.796875 32.3125 
Q 56.78125 27.484375 56.78125 20.515625 
Q 56.78125 9.90625 50.3125 4.234375 
Q 43.84375 -1.421875 31.78125 -1.421875 
Q 19.734375 -1.421875 13.25 4.234375 
Q 6.78125 9.90625 6.78125 20.515625 
Q 6.78125 27.484375 10.78125 32.3125 
Q 14.796875 37.15625 21.921875 38.8125 
z
M 18.3125 54.390625 
Q 18.3125 48.734375 21.84375 45.5625 
Q 25.390625 42.390625 31.78125 42.390625 
Q 38.140625 42.390625 41.71875 45.5625 
Q 45.3125 48.734375 45.3125 54.390625 
Q 45.3125 60.0625 41.71875 63.234375 
Q 38.140625 66.40625 31.78125 66.40625 
Q 25.390625 66.40625 21.84375 63.234375 
Q 18.3125 60.0625 18.3125 54.390625 
z
" id="DejaVuSans-56"/>
      </defs>
      <g transform="translate(300.847232 242.738437)scale(0.1 -0.1)">
       <use xlink:href="#DejaVuSans-56"/>
       <use x="63.623047" xlink:href="#DejaVuSans-48"/>
      </g>
     </g>
    </g>
   </g>
   <g id="matplotlib.axis_2">
    <g id="ytick_1">
     <g id="line2d_5">
      <defs>
       <path d="M 0 0 
L -3.5 0 
" id="m625b746efd" style="stroke:#000000;stroke-width:0.8;"/>
      </defs>
      <g>
       <use style="stroke:#000000;stroke-width:0.8;" x="33.2875" xlink:href="#m625b746efd" y="219.966892"/>
      </g>
     </g>
     <g id="text_5">
      <!-- 25 -->
      <defs>
       <path d="M 10.796875 72.90625 
L 49.515625 72.90625 
L 49.515625 64.59375 
L 19.828125 64.59375 
L 19.828125 46.734375 
Q 21.96875 47.46875 24.109375 47.828125 
Q 26.265625 48.1875 28.421875 48.1875 
Q 40.625 48.1875 47.75 41.5 
Q 54.890625 34.8125 54.890625 23.390625 
Q 54.890625 11.625 47.5625 5.09375 
Q 40.234375 -1.421875 26.90625 -1.421875 
Q 22.3125 -1.421875 17.546875 -0.640625 
Q 12.796875 0.140625 7.71875 1.703125 
L 7.71875 11.625 
Q 12.109375 9.234375 16.796875 8.0625 
Q 21.484375 6.890625 26.703125 6.890625 
Q 35.15625 6.890625 40.078125 11.328125 
Q 45.015625 15.765625 45.015625 23.390625 
Q 45.015625 31 40.078125 35.4375 
Q 35.15625 39.890625 26.703125 39.890625 
Q 22.75 39.890625 18.8125 39.015625 
Q 14.890625 38.140625 10.796875 36.28125 
z
" id="DejaVuSans-53"/>
      </defs>
      <g transform="translate(13.5625 223.766111)scale(0.1 -0.1)">
       <use xlink:href="#DejaVuSans-50"/>
       <use x="63.623047" xlink:href="#DejaVuSans-53"/>
      </g>
     </g>
    </g>
    <g id="ytick_2">
     <g id="line2d_6">
      <g>
       <use style="stroke:#000000;stroke-width:0.8;" x="33.2875" xlink:href="#m625b746efd" y="191.488308"/>
      </g>
     </g>
     <g id="text_6">
      <!-- 50 -->
      <g transform="translate(13.5625 195.287527)scale(0.1 -0.1)">
       <use xlink:href="#DejaVuSans-53"/>
       <use x="63.623047" xlink:href="#DejaVuSans-48"/>
      </g>
     </g>
    </g>
    <g id="ytick_3">
     <g id="line2d_7">
      <g>
       <use style="stroke:#000000;stroke-width:0.8;" x="33.2875" xlink:href="#m625b746efd" y="163.009724"/>
      </g>
     </g>
     <g id="text_7">
      <!-- 75 -->
      <defs>
       <path d="M 8.203125 72.90625 
L 55.078125 72.90625 
L 55.078125 68.703125 
L 28.609375 0 
L 18.3125 0 
L 43.21875 64.59375 
L 8.203125 64.59375 
z
" id="DejaVuSans-55"/>
      </defs>
      <g transform="translate(13.5625 166.808943)scale(0.1 -0.1)">
       <use xlink:href="#DejaVuSans-55"/>
       <use x="63.623047" xlink:href="#DejaVuSans-53"/>
      </g>
     </g>
    </g>
    <g id="ytick_4">
     <g id="line2d_8">
      <g>
       <use style="stroke:#000000;stroke-width:0.8;" x="33.2875" xlink:href="#m625b746efd" y="134.53114"/>
      </g>
     </g>
     <g id="text_8">
      <!-- 100 -->
      <defs>
       <path d="M 12.40625 8.296875 
L 28.515625 8.296875 
L 28.515625 63.921875 
L 10.984375 60.40625 
L 10.984375 69.390625 
L 28.421875 72.90625 
L 38.28125 72.90625 
L 38.28125 8.296875 
L 54.390625 8.296875 
L 54.390625 0 
L 12.40625 0 
z
" id="DejaVuSans-49"/>
      </defs>
      <g transform="translate(7.2 138.330359)scale(0.1 -0.1)">
       <use xlink:href="#DejaVuSans-49"/>
       <use x="63.623047" xlink:href="#DejaVuSans-48"/>
       <use x="127.246094" xlink:href="#DejaVuSans-48"/>
      </g>
     </g>
    </g>
    <g id="ytick_5">
     <g id="line2d_9">
      <g>
       <use style="stroke:#000000;stroke-width:0.8;" x="33.2875" xlink:href="#m625b746efd" y="106.052556"/>
      </g>
     </g>
     <g id="text_9">
      <!-- 125 -->
      <g transform="translate(7.2 109.851774)scale(0.1 -0.1)">
       <use xlink:href="#DejaVuSans-49"/>
       <use x="63.623047" xlink:href="#DejaVuSans-50"/>
       <use x="127.246094" xlink:href="#DejaVuSans-53"/>
      </g>
     </g>
    </g>
    <g id="ytick_6">
     <g id="line2d_10">
      <g>
       <use style="stroke:#000000;stroke-width:0.8;" x="33.2875" xlink:href="#m625b746efd" y="77.573972"/>
      </g>
     </g>
     <g id="text_10">
      <!-- 150 -->
      <g transform="translate(7.2 81.37319)scale(0.1 -0.1)">
       <use xlink:href="#DejaVuSans-49"/>
       <use x="63.623047" xlink:href="#DejaVuSans-53"/>
       <use x="127.246094" xlink:href="#DejaVuSans-48"/>
      </g>
     </g>
    </g>
    <g id="ytick_7">
     <g id="line2d_11">
      <g>
       <use style="stroke:#000000;stroke-width:0.8;" x="33.2875" xlink:href="#m625b746efd" y="49.095387"/>
      </g>
     </g>
     <g id="text_11">
      <!-- 175 -->
      <g transform="translate(7.2 52.894606)scale(0.1 -0.1)">
       <use xlink:href="#DejaVuSans-49"/>
       <use x="63.623047" xlink:href="#DejaVuSans-55"/>
       <use x="127.246094" xlink:href="#DejaVuSans-53"/>
      </g>
     </g>
    </g>
    <g id="ytick_8">
     <g id="line2d_12">
      <g>
       <use style="stroke:#000000;stroke-width:0.8;" x="33.2875" xlink:href="#m625b746efd" y="20.616803"/>
      </g>
     </g>
     <g id="text_12">
      <!-- 200 -->
      <g transform="translate(7.2 24.416022)scale(0.1 -0.1)">
       <use xlink:href="#DejaVuSans-50"/>
       <use x="63.623047" xlink:href="#DejaVuSans-48"/>
       <use x="127.246094" xlink:href="#DejaVuSans-48"/>
      </g>
     </g>
    </g>
   </g>
   <g id="patch_3">
    <path d="M 33.2875 228.14 
L 33.2875 10.7 
" style="fill:none;stroke:#000000;stroke-linecap:square;stroke-linejoin:miter;stroke-width:0.8;"/>
   </g>
   <g id="patch_4">
    <path d="M 368.0875 228.14 
L 368.0875 10.7 
" style="fill:none;stroke:#000000;stroke-linecap:square;stroke-linejoin:miter;stroke-width:0.8;"/>
   </g>
   <g id="patch_5">
    <path d="M 33.2875 228.14 
L 368.0875 228.14 
" style="fill:none;stroke:#000000;stroke-linecap:square;stroke-linejoin:miter;stroke-width:0.8;"/>
   </g>
   <g id="patch_6">
    <path d="M 33.2875 10.7 
L 368.0875 10.7 
" style="fill:none;stroke:#000000;stroke-linecap:square;stroke-linejoin:miter;stroke-width:0.8;"/>
   </g>
  </g>
 </g>
 <defs>
  <clipPath id="p42a61fc171">
   <rect height="217.44" width="334.8" x="33.2875" y="10.7"/>
  </clipPath>
 </defs>
</svg>
