<?xml version="1.0" encoding="utf-8" standalone="no"?>
<!DOCTYPE svg PUBLIC "-//W3C//DTD SVG 1.1//EN"
  "http://www.w3.org/Graphics/SVG/1.1/DTD/svg11.dtd">
<!-- Created with matplotlib (https://matplotlib.org/) -->
<svg height="226.194375pt" version="1.1" viewBox="0 0 336.665625 226.194375" width="336.665625pt" xmlns="http://www.w3.org/2000/svg" xmlns:xlink="http://www.w3.org/1999/xlink">
 <defs>
  <style type="text/css">
*{stroke-linecap:butt;stroke-linejoin:round;}
  </style>
 </defs>
 <g id="figure_1">
  <g id="patch_1">
   <path d="M 0 226.194375 
L 336.665625 226.194375 
L 336.665625 0 
L 0 0 
z
" style="fill:#ffffff;"/>
  </g>
  <g id="axes_1">
   <g id="patch_2">
    <path d="M 46.965625 188.638125 
L 325.965625 188.638125 
L 325.965625 22.318125 
L 46.965625 22.318125 
z
" style="fill:#ffffff;"/>
   </g>
   <g id="PathCollection_1">
    <defs>
     <path d="M 0 3 
C 0.795609 3 1.55874 2.683901 2.12132 2.12132 
C 2.683901 1.55874 3 0.795609 3 0 
C 3 -0.795609 2.683901 -1.55874 2.12132 -2.12132 
C 1.55874 -2.683901 0.795609 -3 0 -3 
C -0.795609 -3 -1.55874 -2.683901 -2.12132 -2.12132 
C -2.683901 -1.55874 -3 -0.795609 -3 0 
C -3 0.795609 -2.683901 1.55874 -2.12132 2.12132 
C -1.55874 2.683901 -0.795609 3 0 3 
z
" id="md1c7dc7d74" style="stroke:#9acd32;"/>
    </defs>
    <g clip-path="url(#p7be5bd8da6)">
     <use style="fill:#9acd32;stroke:#9acd32;" x="146.551935" xlink:href="#md1c7dc7d74" y="152.501955"/>
     <use style="fill:#9acd32;stroke:#9acd32;" x="230.938841" xlink:href="#md1c7dc7d74" y="147.716389"/>
     <use style="fill:#9acd32;stroke:#9acd32;" x="218.194187" xlink:href="#md1c7dc7d74" y="145.699332"/>
     <use style="fill:#9acd32;stroke:#9acd32;" x="265.266793" xlink:href="#md1c7dc7d74" y="143.948647"/>
     <use style="fill:#9acd32;stroke:#9acd32;" x="127.38639" xlink:href="#md1c7dc7d74" y="147.036435"/>
     <use style="fill:#9acd32;stroke:#9acd32;" x="142.143199" xlink:href="#md1c7dc7d74" y="147.601208"/>
     <use style="fill:#9acd32;stroke:#9acd32;" x="114.941011" xlink:href="#md1c7dc7d74" y="140.394169"/>
     <use style="fill:#9acd32;stroke:#9acd32;" x="194.881802" xlink:href="#md1c7dc7d74" y="140.041673"/>
     <use style="fill:#9acd32;stroke:#9acd32;" x="256.087527" xlink:href="#md1c7dc7d74" y="140.581078"/>
     <use style="fill:#9acd32;stroke:#9acd32;" x="124.980271" xlink:href="#md1c7dc7d74" y="146.898888"/>
     <use style="fill:#9acd32;stroke:#9acd32;" x="179.196807" xlink:href="#md1c7dc7d74" y="142.843468"/>
     <use style="fill:#9acd32;stroke:#9acd32;" x="93.214144" xlink:href="#md1c7dc7d74" y="141.41784"/>
     <use style="fill:#9acd32;stroke:#9acd32;" x="268.08997" xlink:href="#md1c7dc7d74" y="136.952735"/>
     <use style="fill:#9acd32;stroke:#9acd32;" x="215.807545" xlink:href="#md1c7dc7d74" y="143.808431"/>
     <use style="fill:#9acd32;stroke:#9acd32;" x="100.480557" xlink:href="#md1c7dc7d74" y="136.013455"/>
     <use style="fill:#9acd32;stroke:#9acd32;" x="193.383404" xlink:href="#md1c7dc7d74" y="147.828124"/>
     <use style="fill:#9acd32;stroke:#9acd32;" x="166.252071" xlink:href="#md1c7dc7d74" y="144.048421"/>
     <use style="fill:#9acd32;stroke:#9acd32;" x="131.133482" xlink:href="#md1c7dc7d74" y="136.331757"/>
     <use style="fill:#9acd32;stroke:#9acd32;" x="174.177041" xlink:href="#md1c7dc7d74" y="149.057283"/>
     <use style="fill:#9acd32;stroke:#9acd32;" x="228.475907" xlink:href="#md1c7dc7d74" y="140.885439"/>
     <use style="fill:#9acd32;stroke:#9acd32;" x="168.407005" xlink:href="#md1c7dc7d74" y="150.496148"/>
     <use style="fill:#9acd32;stroke:#9acd32;" x="165.426618" xlink:href="#md1c7dc7d74" y="148.828033"/>
     <use style="fill:#9acd32;stroke:#9acd32;" x="157.030864" xlink:href="#md1c7dc7d74" y="138.684918"/>
     <use style="fill:#9acd32;stroke:#9acd32;" x="184.243303" xlink:href="#md1c7dc7d74" y="138.773891"/>
     <use style="fill:#9acd32;stroke:#9acd32;" x="76.806733" xlink:href="#md1c7dc7d74" y="141.23299"/>
     <use style="fill:#9acd32;stroke:#9acd32;" x="175.620339" xlink:href="#md1c7dc7d74" y="149.713989"/>
     <use style="fill:#9acd32;stroke:#9acd32;" x="305.758116" xlink:href="#md1c7dc7d74" y="150.012267"/>
     <use style="fill:#9acd32;stroke:#9acd32;" x="142.967926" xlink:href="#md1c7dc7d74" y="132.365957"/>
     <use style="fill:#9acd32;stroke:#9acd32;" x="146.05643" xlink:href="#md1c7dc7d74" y="133.262918"/>
     <use style="fill:#9acd32;stroke:#9acd32;" x="234.462974" xlink:href="#md1c7dc7d74" y="144.824991"/>
     <use style="fill:#9acd32;stroke:#9acd32;" x="119.326078" xlink:href="#md1c7dc7d74" y="140.242471"/>
     <use style="fill:#9acd32;stroke:#9acd32;" x="143.315166" xlink:href="#md1c7dc7d74" y="152.746695"/>
     <use style="fill:#9acd32;stroke:#9acd32;" x="229.522899" xlink:href="#md1c7dc7d74" y="138.697841"/>
     <use style="fill:#9acd32;stroke:#9acd32;" x="168.064976" xlink:href="#md1c7dc7d74" y="140.524213"/>
     <use style="fill:#9acd32;stroke:#9acd32;" x="75.584737" xlink:href="#md1c7dc7d74" y="156.800554"/>
     <use style="fill:#9acd32;stroke:#9acd32;" x="216.398389" xlink:href="#md1c7dc7d74" y="136.797118"/>
     <use style="fill:#9acd32;stroke:#9acd32;" x="264.123088" xlink:href="#md1c7dc7d74" y="148.198206"/>
     <use style="fill:#9acd32;stroke:#9acd32;" x="198.199513" xlink:href="#md1c7dc7d74" y="138.188672"/>
     <use style="fill:#9acd32;stroke:#9acd32;" x="150.082118" xlink:href="#md1c7dc7d74" y="150.570959"/>
     <use style="fill:#9acd32;stroke:#9acd32;" x="123.062184" xlink:href="#md1c7dc7d74" y="140.510612"/>
    </g>
   </g>
   <g id="PathCollection_2">
    <defs>
     <path d="M 0 3 
C 0.795609 3 1.55874 2.683901 2.12132 2.12132 
C 2.683901 1.55874 3 0.795609 3 0 
C 3 -0.795609 2.683901 -1.55874 2.12132 -2.12132 
C 1.55874 -2.683901 0.795609 -3 0 -3 
C -0.795609 -3 -1.55874 -2.683901 -2.12132 -2.12132 
C -2.683901 -1.55874 -3 -0.795609 -3 0 
C -3 0.795609 -2.683901 1.55874 -2.12132 2.12132 
C -1.55874 2.683901 -0.795609 3 0 3 
z
" id="m2bc4f68105" style="stroke:#00bfff;"/>
    </defs>
    <g clip-path="url(#p7be5bd8da6)">
     <use style="fill:#00bfff;stroke:#00bfff;" x="264.974049" xlink:href="#m2bc4f68105" y="42.079167"/>
     <use style="fill:#00bfff;stroke:#00bfff;" x="219.950173" xlink:href="#m2bc4f68105" y="45.762131"/>
     <use style="fill:#00bfff;stroke:#00bfff;" x="311.323241" xlink:href="#m2bc4f68105" y="48.442769"/>
     <use style="fill:#00bfff;stroke:#00bfff;" x="186.013784" xlink:href="#m2bc4f68105" y="45.322764"/>
     <use style="fill:#00bfff;stroke:#00bfff;" x="171.54621" xlink:href="#m2bc4f68105" y="43.266126"/>
     <use style="fill:#00bfff;stroke:#00bfff;" x="151.813232" xlink:href="#m2bc4f68105" y="49.957831"/>
     <use style="fill:#00bfff;stroke:#00bfff;" x="200.070429" xlink:href="#m2bc4f68105" y="36.861182"/>
     <use style="fill:#00bfff;stroke:#00bfff;" x="217.157649" xlink:href="#m2bc4f68105" y="44.127931"/>
     <use style="fill:#00bfff;stroke:#00bfff;" x="253.073163" xlink:href="#m2bc4f68105" y="43.249778"/>
     <use style="fill:#00bfff;stroke:#00bfff;" x="169.014348" xlink:href="#m2bc4f68105" y="48.774324"/>
     <use style="fill:#00bfff;stroke:#00bfff;" x="294.011942" xlink:href="#m2bc4f68105" y="44.078321"/>
     <use style="fill:#00bfff;stroke:#00bfff;" x="213.636903" xlink:href="#m2bc4f68105" y="50.542379"/>
     <use style="fill:#00bfff;stroke:#00bfff;" x="265.27359" xlink:href="#m2bc4f68105" y="44.819776"/>
     <use style="fill:#00bfff;stroke:#00bfff;" x="303.543778" xlink:href="#m2bc4f68105" y="50.035582"/>
     <use style="fill:#00bfff;stroke:#00bfff;" x="220.054206" xlink:href="#m2bc4f68105" y="45.176022"/>
     <use style="fill:#00bfff;stroke:#00bfff;" x="158.087734" xlink:href="#m2bc4f68105" y="49.371081"/>
     <use style="fill:#00bfff;stroke:#00bfff;" x="143.95829" xlink:href="#m2bc4f68105" y="47.957233"/>
     <use style="fill:#00bfff;stroke:#00bfff;" x="240.641592" xlink:href="#m2bc4f68105" y="51.210152"/>
     <use style="fill:#00bfff;stroke:#00bfff;" x="165.91802" xlink:href="#m2bc4f68105" y="41.13007"/>
     <use style="fill:#00bfff;stroke:#00bfff;" x="134.122916" xlink:href="#m2bc4f68105" y="36.01122"/>
     <use style="fill:#00bfff;stroke:#00bfff;" x="162.394081" xlink:href="#m2bc4f68105" y="52.266923"/>
     <use style="fill:#00bfff;stroke:#00bfff;" x="214.356322" xlink:href="#m2bc4f68105" y="49.117731"/>
     <use style="fill:#00bfff;stroke:#00bfff;" x="169.43253" xlink:href="#m2bc4f68105" y="46.839134"/>
     <use style="fill:#00bfff;stroke:#00bfff;" x="199.514916" xlink:href="#m2bc4f68105" y="39.831176"/>
     <use style="fill:#00bfff;stroke:#00bfff;" x="229.108468" xlink:href="#m2bc4f68105" y="30.227405"/>
     <use style="fill:#00bfff;stroke:#00bfff;" x="235.37871" xlink:href="#m2bc4f68105" y="39.444607"/>
     <use style="fill:#00bfff;stroke:#00bfff;" x="149.710257" xlink:href="#m2bc4f68105" y="48.366107"/>
    </g>
   </g>
   <g id="PathCollection_3">
    <defs>
     <path d="M 0 3 
C 0.795609 3 1.55874 2.683901 2.12132 2.12132 
C 2.683901 1.55874 3 0.795609 3 0 
C 3 -0.795609 2.683901 -1.55874 2.12132 -2.12132 
C 1.55874 -2.683901 0.795609 -3 0 -3 
C -0.795609 -3 -1.55874 -2.683901 -2.12132 -2.12132 
C -2.683901 -1.55874 -3 -0.795609 -3 0 
C -3 0.795609 -2.683901 1.55874 -2.12132 2.12132 
C -1.55874 2.683901 -0.795609 3 0 3 
z
" id="mf2591eca7d" style="stroke:#ff69b4;"/>
    </defs>
    <g clip-path="url(#p7be5bd8da6)">
     <use style="fill:#ff69b4;stroke:#ff69b4;" x="237.123002" xlink:href="#mf2591eca7d" y="98.348338"/>
     <use style="fill:#ff69b4;stroke:#ff69b4;" x="201.244938" xlink:href="#mf2591eca7d" y="82.490204"/>
     <use style="fill:#ff69b4;stroke:#ff69b4;" x="143.579526" xlink:href="#mf2591eca7d" y="88.05293"/>
     <use style="fill:#ff69b4;stroke:#ff69b4;" x="169.29394" xlink:href="#mf2591eca7d" y="85.951199"/>
     <use style="fill:#ff69b4;stroke:#ff69b4;" x="182.855087" xlink:href="#mf2591eca7d" y="92.311047"/>
     <use style="fill:#ff69b4;stroke:#ff69b4;" x="219.090942" xlink:href="#mf2591eca7d" y="93.094227"/>
     <use style="fill:#ff69b4;stroke:#ff69b4;" x="219.916498" xlink:href="#mf2591eca7d" y="86.655425"/>
     <use style="fill:#ff69b4;stroke:#ff69b4;" x="207.62754" xlink:href="#mf2591eca7d" y="91.234446"/>
     <use style="fill:#ff69b4;stroke:#ff69b4;" x="167.605184" xlink:href="#mf2591eca7d" y="91.260667"/>
    </g>
   </g>
   <g id="PathCollection_4">
    <defs>
     <path d="M 0 3 
C 0.795609 3 1.55874 2.683901 2.12132 2.12132 
C 2.683901 1.55874 3 0.795609 3 0 
C 3 -0.795609 2.683901 -1.55874 2.12132 -2.12132 
C 1.55874 -2.683901 0.795609 -3 0 -3 
C -0.795609 -3 -1.55874 -2.683901 -2.12132 -2.12132 
C -2.683901 -1.55874 -3 -0.795609 -3 0 
C -3 0.795609 -2.683901 1.55874 -2.12132 2.12132 
C -1.55874 2.683901 -0.795609 3 0 3 
z
" id="m2f97c63f96" style="stroke:#ff6347;"/>
    </defs>
    <g clip-path="url(#p7be5bd8da6)">
     <use style="fill:#ff6347;stroke:#ff6347;" x="184.993224" xlink:href="#m2f97c63f96" y="169.033091"/>
     <use style="fill:#ff6347;stroke:#ff6347;" x="213.559416" xlink:href="#m2f97c63f96" y="173.134744"/>
     <use style="fill:#ff6347;stroke:#ff6347;" x="272.662682" xlink:href="#m2f97c63f96" y="174.063601"/>
     <use style="fill:#ff6347;stroke:#ff6347;" x="173.549653" xlink:href="#m2f97c63f96" y="172.124281"/>
     <use style="fill:#ff6347;stroke:#ff6347;" x="240.146408" xlink:href="#m2f97c63f96" y="179.26484"/>
     <use style="fill:#ff6347;stroke:#ff6347;" x="205.820284" xlink:href="#m2f97c63f96" y="178.987211"/>
     <use style="fill:#ff6347;stroke:#ff6347;" x="222.450536" xlink:href="#m2f97c63f96" y="164.218722"/>
     <use style="fill:#ff6347;stroke:#ff6347;" x="130.909791" xlink:href="#m2f97c63f96" y="173.49362"/>
     <use style="fill:#ff6347;stroke:#ff6347;" x="242.396287" xlink:href="#m2f97c63f96" y="174.537377"/>
     <use style="fill:#ff6347;stroke:#ff6347;" x="94.594663" xlink:href="#m2f97c63f96" y="175.71088"/>
     <use style="fill:#ff6347;stroke:#ff6347;" x="296.494335" xlink:href="#m2f97c63f96" y="175.560951"/>
     <use style="fill:#ff6347;stroke:#ff6347;" x="161.438256" xlink:href="#m2f97c63f96" y="172.147004"/>
     <use style="fill:#ff6347;stroke:#ff6347;" x="210.418498" xlink:href="#m2f97c63f96" y="156.291415"/>
     <use style="fill:#ff6347;stroke:#ff6347;" x="187.417163" xlink:href="#m2f97c63f96" y="167.318182"/>
     <use style="fill:#ff6347;stroke:#ff6347;" x="208.248097" xlink:href="#m2f97c63f96" y="173.990916"/>
     <use style="fill:#ff6347;stroke:#ff6347;" x="157.443152" xlink:href="#m2f97c63f96" y="161.555521"/>
     <use style="fill:#ff6347;stroke:#ff6347;" x="159.8486" xlink:href="#m2f97c63f96" y="175.135092"/>
     <use style="fill:#ff6347;stroke:#ff6347;" x="213.65546" xlink:href="#m2f97c63f96" y="175.710304"/>
     <use style="fill:#ff6347;stroke:#ff6347;" x="224.384166" xlink:href="#m2f97c63f96" y="161.773743"/>
     <use style="fill:#ff6347;stroke:#ff6347;" x="138.393165" xlink:href="#m2f97c63f96" y="167.528292"/>
     <use style="fill:#ff6347;stroke:#ff6347;" x="162.811284" xlink:href="#m2f97c63f96" y="168.804542"/>
     <use style="fill:#ff6347;stroke:#ff6347;" x="231.637847" xlink:href="#m2f97c63f96" y="172.844028"/>
     <use style="fill:#ff6347;stroke:#ff6347;" x="61.671909" xlink:href="#m2f97c63f96" y="163.839941"/>
     <use style="fill:#ff6347;stroke:#ff6347;" x="288.234948" xlink:href="#m2f97c63f96" y="174.274276"/>
    </g>
   </g>
   <g id="matplotlib.axis_1">
    <g id="xtick_1">
     <g id="line2d_1">
      <defs>
       <path d="M 0 0 
L 0 3.5 
" id="mc1a71ba1ea" style="stroke:#000000;stroke-width:0.8;"/>
      </defs>
      <g>
       <use style="stroke:#000000;stroke-width:0.8;" x="101.219877" xlink:href="#mc1a71ba1ea" y="188.638125"/>
      </g>
     </g>
     <g id="text_1">
      <!-- 20 -->
      <defs>
       <path d="M 19.1875 8.296875 
L 53.609375 8.296875 
L 53.609375 0 
L 7.328125 0 
L 7.328125 8.296875 
Q 12.9375 14.109375 22.625 23.890625 
Q 32.328125 33.6875 34.8125 36.53125 
Q 39.546875 41.84375 41.421875 45.53125 
Q 43.3125 49.21875 43.3125 52.78125 
Q 43.3125 58.59375 39.234375 62.25 
Q 35.15625 65.921875 28.609375 65.921875 
Q 23.96875 65.921875 18.8125 64.3125 
Q 13.671875 62.703125 7.8125 59.421875 
L 7.8125 69.390625 
Q 13.765625 71.78125 18.9375 73 
Q 24.125 74.21875 28.421875 74.21875 
Q 39.75 74.21875 46.484375 68.546875 
Q 53.21875 62.890625 53.21875 53.421875 
Q 53.21875 48.921875 51.53125 44.890625 
Q 49.859375 40.875 45.40625 35.40625 
Q 44.1875 33.984375 37.640625 27.21875 
Q 31.109375 20.453125 19.1875 8.296875 
z
" id="DejaVuSans-50"/>
       <path d="M 31.78125 66.40625 
Q 24.171875 66.40625 20.328125 58.90625 
Q 16.5 51.421875 16.5 36.375 
Q 16.5 21.390625 20.328125 13.890625 
Q 24.171875 6.390625 31.78125 6.390625 
Q 39.453125 6.390625 43.28125 13.890625 
Q 47.125 21.390625 47.125 36.375 
Q 47.125 51.421875 43.28125 58.90625 
Q 39.453125 66.40625 31.78125 66.40625 
z
M 31.78125 74.21875 
Q 44.046875 74.21875 50.515625 64.515625 
Q 56.984375 54.828125 56.984375 36.375 
Q 56.984375 17.96875 50.515625 8.265625 
Q 44.046875 -1.421875 31.78125 -1.421875 
Q 19.53125 -1.421875 13.0625 8.265625 
Q 6.59375 17.96875 6.59375 36.375 
Q 6.59375 54.828125 13.0625 64.515625 
Q 19.53125 74.21875 31.78125 74.21875 
z
" id="DejaVuSans-48"/>
      </defs>
      <g transform="translate(94.857377 203.236563)scale(0.1 -0.1)">
       <use xlink:href="#DejaVuSans-50"/>
       <use x="63.623047" xlink:href="#DejaVuSans-48"/>
      </g>
     </g>
    </g>
    <g id="xtick_2">
     <g id="line2d_2">
      <g>
       <use style="stroke:#000000;stroke-width:0.8;" x="158.776404" xlink:href="#mc1a71ba1ea" y="188.638125"/>
      </g>
     </g>
     <g id="text_2">
      <!-- 40 -->
      <defs>
       <path d="M 37.796875 64.3125 
L 12.890625 25.390625 
L 37.796875 25.390625 
z
M 35.203125 72.90625 
L 47.609375 72.90625 
L 47.609375 25.390625 
L 58.015625 25.390625 
L 58.015625 17.1875 
L 47.609375 17.1875 
L 47.609375 0 
L 37.796875 0 
L 37.796875 17.1875 
L 4.890625 17.1875 
L 4.890625 26.703125 
z
" id="DejaVuSans-52"/>
      </defs>
      <g transform="translate(152.413904 203.236563)scale(0.1 -0.1)">
       <use xlink:href="#DejaVuSans-52"/>
       <use x="63.623047" xlink:href="#DejaVuSans-48"/>
      </g>
     </g>
    </g>
    <g id="xtick_3">
     <g id="line2d_3">
      <g>
       <use style="stroke:#000000;stroke-width:0.8;" x="216.33293" xlink:href="#mc1a71ba1ea" y="188.638125"/>
      </g>
     </g>
     <g id="text_3">
      <!-- 60 -->
      <defs>
       <path d="M 33.015625 40.375 
Q 26.375 40.375 22.484375 35.828125 
Q 18.609375 31.296875 18.609375 23.390625 
Q 18.609375 15.53125 22.484375 10.953125 
Q 26.375 6.390625 33.015625 6.390625 
Q 39.65625 6.390625 43.53125 10.953125 
Q 47.40625 15.53125 47.40625 23.390625 
Q 47.40625 31.296875 43.53125 35.828125 
Q 39.65625 40.375 33.015625 40.375 
z
M 52.59375 71.296875 
L 52.59375 62.3125 
Q 48.875 64.0625 45.09375 64.984375 
Q 41.3125 65.921875 37.59375 65.921875 
Q 27.828125 65.921875 22.671875 59.328125 
Q 17.53125 52.734375 16.796875 39.40625 
Q 19.671875 43.65625 24.015625 45.921875 
Q 28.375 48.1875 33.59375 48.1875 
Q 44.578125 48.1875 50.953125 41.515625 
Q 57.328125 34.859375 57.328125 23.390625 
Q 57.328125 12.15625 50.6875 5.359375 
Q 44.046875 -1.421875 33.015625 -1.421875 
Q 20.359375 -1.421875 13.671875 8.265625 
Q 6.984375 17.96875 6.984375 36.375 
Q 6.984375 53.65625 15.1875 63.9375 
Q 23.390625 74.21875 37.203125 74.21875 
Q 40.921875 74.21875 44.703125 73.484375 
Q 48.484375 72.75 52.59375 71.296875 
z
" id="DejaVuSans-54"/>
      </defs>
      <g transform="translate(209.97043 203.236563)scale(0.1 -0.1)">
       <use xlink:href="#DejaVuSans-54"/>
       <use x="63.623047" xlink:href="#DejaVuSans-48"/>
      </g>
     </g>
    </g>
    <g id="xtick_4">
     <g id="line2d_4">
      <g>
       <use style="stroke:#000000;stroke-width:0.8;" x="273.889457" xlink:href="#mc1a71ba1ea" y="188.638125"/>
      </g>
     </g>
     <g id="text_4">
      <!-- 80 -->
      <defs>
       <path d="M 31.78125 34.625 
Q 24.75 34.625 20.71875 30.859375 
Q 16.703125 27.09375 16.703125 20.515625 
Q 16.703125 13.921875 20.71875 10.15625 
Q 24.75 6.390625 31.78125 6.390625 
Q 38.8125 6.390625 42.859375 10.171875 
Q 46.921875 13.96875 46.921875 20.515625 
Q 46.921875 27.09375 42.890625 30.859375 
Q 38.875 34.625 31.78125 34.625 
z
M 21.921875 38.8125 
Q 15.578125 40.375 12.03125 44.71875 
Q 8.5 49.078125 8.5 55.328125 
Q 8.5 64.0625 14.71875 69.140625 
Q 20.953125 74.21875 31.78125 74.21875 
Q 42.671875 74.21875 48.875 69.140625 
Q 55.078125 64.0625 55.078125 55.328125 
Q 55.078125 49.078125 51.53125 44.71875 
Q 48 40.375 41.703125 38.8125 
Q 48.828125 37.15625 52.796875 32.3125 
Q 56.78125 27.484375 56.78125 20.515625 
Q 56.78125 9.90625 50.3125 4.234375 
Q 43.84375 -1.421875 31.78125 -1.421875 
Q 19.734375 -1.421875 13.25 4.234375 
Q 6.78125 9.90625 6.78125 20.515625 
Q 6.78125 27.484375 10.78125 32.3125 
Q 14.796875 37.15625 21.921875 38.8125 
z
M 18.3125 54.390625 
Q 18.3125 48.734375 21.84375 45.5625 
Q 25.390625 42.390625 31.78125 42.390625 
Q 38.140625 42.390625 41.71875 45.5625 
Q 45.3125 48.734375 45.3125 54.390625 
Q 45.3125 60.0625 41.71875 63.234375 
Q 38.140625 66.40625 31.78125 66.40625 
Q 25.390625 66.40625 21.84375 63.234375 
Q 18.3125 60.0625 18.3125 54.390625 
z
" id="DejaVuSans-56"/>
      </defs>
      <g transform="translate(267.526957 203.236563)scale(0.1 -0.1)">
       <use xlink:href="#DejaVuSans-56"/>
       <use x="63.623047" xlink:href="#DejaVuSans-48"/>
      </g>
     </g>
    </g>
    <g id="text_5">
     <!-- X values -->
     <defs>
      <path d="M 6.296875 72.90625 
L 16.890625 72.90625 
L 35.015625 45.796875 
L 53.21875 72.90625 
L 63.8125 72.90625 
L 40.375 37.890625 
L 65.375 0 
L 54.78125 0 
L 34.28125 31 
L 13.625 0 
L 2.984375 0 
L 29 38.921875 
z
" id="DejaVuSans-88"/>
      <path id="DejaVuSans-32"/>
      <path d="M 2.984375 54.6875 
L 12.5 54.6875 
L 29.59375 8.796875 
L 46.6875 54.6875 
L 56.203125 54.6875 
L 35.6875 0 
L 23.484375 0 
z
" id="DejaVuSans-118"/>
      <path d="M 34.28125 27.484375 
Q 23.390625 27.484375 19.1875 25 
Q 14.984375 22.515625 14.984375 16.5 
Q 14.984375 11.71875 18.140625 8.90625 
Q 21.296875 6.109375 26.703125 6.109375 
Q 34.1875 6.109375 38.703125 11.40625 
Q 43.21875 16.703125 43.21875 25.484375 
L 43.21875 27.484375 
z
M 52.203125 31.203125 
L 52.203125 0 
L 43.21875 0 
L 43.21875 8.296875 
Q 40.140625 3.328125 35.546875 0.953125 
Q 30.953125 -1.421875 24.3125 -1.421875 
Q 15.921875 -1.421875 10.953125 3.296875 
Q 6 8.015625 6 15.921875 
Q 6 25.140625 12.171875 29.828125 
Q 18.359375 34.515625 30.609375 34.515625 
L 43.21875 34.515625 
L 43.21875 35.40625 
Q 43.21875 41.609375 39.140625 45 
Q 35.0625 48.390625 27.6875 48.390625 
Q 23 48.390625 18.546875 47.265625 
Q 14.109375 46.140625 10.015625 43.890625 
L 10.015625 52.203125 
Q 14.9375 54.109375 19.578125 55.046875 
Q 24.21875 56 28.609375 56 
Q 40.484375 56 46.34375 49.84375 
Q 52.203125 43.703125 52.203125 31.203125 
z
" id="DejaVuSans-97"/>
      <path d="M 9.421875 75.984375 
L 18.40625 75.984375 
L 18.40625 0 
L 9.421875 0 
z
" id="DejaVuSans-108"/>
      <path d="M 8.5 21.578125 
L 8.5 54.6875 
L 17.484375 54.6875 
L 17.484375 21.921875 
Q 17.484375 14.15625 20.5 10.265625 
Q 23.53125 6.390625 29.59375 6.390625 
Q 36.859375 6.390625 41.078125 11.03125 
Q 45.3125 15.671875 45.3125 23.6875 
L 45.3125 54.6875 
L 54.296875 54.6875 
L 54.296875 0 
L 45.3125 0 
L 45.3125 8.40625 
Q 42.046875 3.421875 37.71875 1 
Q 33.40625 -1.421875 27.6875 -1.421875 
Q 18.265625 -1.421875 13.375 4.4375 
Q 8.5 10.296875 8.5 21.578125 
z
M 31.109375 56 
z
" id="DejaVuSans-117"/>
      <path d="M 56.203125 29.59375 
L 56.203125 25.203125 
L 14.890625 25.203125 
Q 15.484375 15.921875 20.484375 11.0625 
Q 25.484375 6.203125 34.421875 6.203125 
Q 39.59375 6.203125 44.453125 7.46875 
Q 49.3125 8.734375 54.109375 11.28125 
L 54.109375 2.78125 
Q 49.265625 0.734375 44.1875 -0.34375 
Q 39.109375 -1.421875 33.890625 -1.421875 
Q 20.796875 -1.421875 13.15625 6.1875 
Q 5.515625 13.8125 5.515625 26.8125 
Q 5.515625 40.234375 12.765625 48.109375 
Q 20.015625 56 32.328125 56 
Q 43.359375 56 49.78125 48.890625 
Q 56.203125 41.796875 56.203125 29.59375 
z
M 47.21875 32.234375 
Q 47.125 39.59375 43.09375 43.984375 
Q 39.0625 48.390625 32.421875 48.390625 
Q 24.90625 48.390625 20.390625 44.140625 
Q 15.875 39.890625 15.1875 32.171875 
z
" id="DejaVuSans-101"/>
      <path d="M 44.28125 53.078125 
L 44.28125 44.578125 
Q 40.484375 46.53125 36.375 47.5 
Q 32.28125 48.484375 27.875 48.484375 
Q 21.1875 48.484375 17.84375 46.4375 
Q 14.5 44.390625 14.5 40.28125 
Q 14.5 37.15625 16.890625 35.375 
Q 19.28125 33.59375 26.515625 31.984375 
L 29.59375 31.296875 
Q 39.15625 29.25 43.1875 25.515625 
Q 47.21875 21.78125 47.21875 15.09375 
Q 47.21875 7.46875 41.1875 3.015625 
Q 35.15625 -1.421875 24.609375 -1.421875 
Q 20.21875 -1.421875 15.453125 -0.5625 
Q 10.6875 0.296875 5.421875 2 
L 5.421875 11.28125 
Q 10.40625 8.6875 15.234375 7.390625 
Q 20.0625 6.109375 24.8125 6.109375 
Q 31.15625 6.109375 34.5625 8.28125 
Q 37.984375 10.453125 37.984375 14.40625 
Q 37.984375 18.0625 35.515625 20.015625 
Q 33.0625 21.96875 24.703125 23.78125 
L 21.578125 24.515625 
Q 13.234375 26.265625 9.515625 29.90625 
Q 5.8125 33.546875 5.8125 39.890625 
Q 5.8125 47.609375 11.28125 51.796875 
Q 16.75 56 26.8125 56 
Q 31.78125 56 36.171875 55.265625 
Q 40.578125 54.546875 44.28125 53.078125 
z
" id="DejaVuSans-115"/>
     </defs>
     <g transform="translate(165.189062 216.914688)scale(0.1 -0.1)">
      <use xlink:href="#DejaVuSans-88"/>
      <use x="68.505859" xlink:href="#DejaVuSans-32"/>
      <use x="100.292969" xlink:href="#DejaVuSans-118"/>
      <use x="159.472656" xlink:href="#DejaVuSans-97"/>
      <use x="220.751953" xlink:href="#DejaVuSans-108"/>
      <use x="248.535156" xlink:href="#DejaVuSans-117"/>
      <use x="311.914062" xlink:href="#DejaVuSans-101"/>
      <use x="373.4375" xlink:href="#DejaVuSans-115"/>
     </g>
    </g>
   </g>
   <g id="matplotlib.axis_2">
    <g id="ytick_1">
     <g id="line2d_5">
      <defs>
       <path d="M 0 0 
L -3.5 0 
" id="m9ab0df8a76" style="stroke:#000000;stroke-width:0.8;"/>
      </defs>
      <g>
       <use style="stroke:#000000;stroke-width:0.8;" x="46.965625" xlink:href="#m9ab0df8a76" y="160.989535"/>
      </g>
     </g>
     <g id="text_6">
      <!-- 50 -->
      <defs>
       <path d="M 10.796875 72.90625 
L 49.515625 72.90625 
L 49.515625 64.59375 
L 19.828125 64.59375 
L 19.828125 46.734375 
Q 21.96875 47.46875 24.109375 47.828125 
Q 26.265625 48.1875 28.421875 48.1875 
Q 40.625 48.1875 47.75 41.5 
Q 54.890625 34.8125 54.890625 23.390625 
Q 54.890625 11.625 47.5625 5.09375 
Q 40.234375 -1.421875 26.90625 -1.421875 
Q 22.3125 -1.421875 17.546875 -0.640625 
Q 12.796875 0.140625 7.71875 1.703125 
L 7.71875 11.625 
Q 12.109375 9.234375 16.796875 8.0625 
Q 21.484375 6.890625 26.703125 6.890625 
Q 35.15625 6.890625 40.078125 11.328125 
Q 45.015625 15.765625 45.015625 23.390625 
Q 45.015625 31 40.078125 35.4375 
Q 35.15625 39.890625 26.703125 39.890625 
Q 22.75 39.890625 18.8125 39.015625 
Q 14.890625 38.140625 10.796875 36.28125 
z
" id="DejaVuSans-53"/>
      </defs>
      <g transform="translate(27.240625 164.788753)scale(0.1 -0.1)">
       <use xlink:href="#DejaVuSans-53"/>
       <use x="63.623047" xlink:href="#DejaVuSans-48"/>
      </g>
     </g>
    </g>
    <g id="ytick_2">
     <g id="line2d_6">
      <g>
       <use style="stroke:#000000;stroke-width:0.8;" x="46.965625" xlink:href="#m9ab0df8a76" y="132.133639"/>
      </g>
     </g>
     <g id="text_7">
      <!-- 100 -->
      <defs>
       <path d="M 12.40625 8.296875 
L 28.515625 8.296875 
L 28.515625 63.921875 
L 10.984375 60.40625 
L 10.984375 69.390625 
L 28.421875 72.90625 
L 38.28125 72.90625 
L 38.28125 8.296875 
L 54.390625 8.296875 
L 54.390625 0 
L 12.40625 0 
z
" id="DejaVuSans-49"/>
      </defs>
      <g transform="translate(20.878125 135.932858)scale(0.1 -0.1)">
       <use xlink:href="#DejaVuSans-49"/>
       <use x="63.623047" xlink:href="#DejaVuSans-48"/>
       <use x="127.246094" xlink:href="#DejaVuSans-48"/>
      </g>
     </g>
    </g>
    <g id="ytick_3">
     <g id="line2d_7">
      <g>
       <use style="stroke:#000000;stroke-width:0.8;" x="46.965625" xlink:href="#m9ab0df8a76" y="103.277743"/>
      </g>
     </g>
     <g id="text_8">
      <!-- 150 -->
      <g transform="translate(20.878125 107.076962)scale(0.1 -0.1)">
       <use xlink:href="#DejaVuSans-49"/>
       <use x="63.623047" xlink:href="#DejaVuSans-53"/>
       <use x="127.246094" xlink:href="#DejaVuSans-48"/>
      </g>
     </g>
    </g>
    <g id="ytick_4">
     <g id="line2d_8">
      <g>
       <use style="stroke:#000000;stroke-width:0.8;" x="46.965625" xlink:href="#m9ab0df8a76" y="74.421847"/>
      </g>
     </g>
     <g id="text_9">
      <!-- 200 -->
      <g transform="translate(20.878125 78.221066)scale(0.1 -0.1)">
       <use xlink:href="#DejaVuSans-50"/>
       <use x="63.623047" xlink:href="#DejaVuSans-48"/>
       <use x="127.246094" xlink:href="#DejaVuSans-48"/>
      </g>
     </g>
    </g>
    <g id="ytick_5">
     <g id="line2d_9">
      <g>
       <use style="stroke:#000000;stroke-width:0.8;" x="46.965625" xlink:href="#m9ab0df8a76" y="45.565951"/>
      </g>
     </g>
     <g id="text_10">
      <!-- 250 -->
      <g transform="translate(20.878125 49.36517)scale(0.1 -0.1)">
       <use xlink:href="#DejaVuSans-50"/>
       <use x="63.623047" xlink:href="#DejaVuSans-53"/>
       <use x="127.246094" xlink:href="#DejaVuSans-48"/>
      </g>
     </g>
    </g>
    <g id="text_11">
     <!-- A values -->
     <defs>
      <path d="M 34.1875 63.1875 
L 20.796875 26.90625 
L 47.609375 26.90625 
z
M 28.609375 72.90625 
L 39.796875 72.90625 
L 67.578125 0 
L 57.328125 0 
L 50.6875 18.703125 
L 17.828125 18.703125 
L 11.1875 0 
L 0.78125 0 
z
" id="DejaVuSans-65"/>
     </defs>
     <g transform="translate(14.798437 126.75)rotate(-90)scale(0.1 -0.1)">
      <use xlink:href="#DejaVuSans-65"/>
      <use x="68.408203" xlink:href="#DejaVuSans-32"/>
      <use x="100.195312" xlink:href="#DejaVuSans-118"/>
      <use x="159.375" xlink:href="#DejaVuSans-97"/>
      <use x="220.654297" xlink:href="#DejaVuSans-108"/>
      <use x="248.4375" xlink:href="#DejaVuSans-117"/>
      <use x="311.816406" xlink:href="#DejaVuSans-101"/>
      <use x="373.339844" xlink:href="#DejaVuSans-115"/>
     </g>
    </g>
   </g>
   <g id="patch_3">
    <path d="M 46.965625 188.638125 
L 46.965625 22.318125 
" style="fill:none;stroke:#000000;stroke-linecap:square;stroke-linejoin:miter;stroke-width:0.8;"/>
   </g>
   <g id="patch_4">
    <path d="M 325.965625 188.638125 
L 325.965625 22.318125 
" style="fill:none;stroke:#000000;stroke-linecap:square;stroke-linejoin:miter;stroke-width:0.8;"/>
   </g>
   <g id="patch_5">
    <path d="M 46.965625 188.638125 
L 325.965625 188.638125 
" style="fill:none;stroke:#000000;stroke-linecap:square;stroke-linejoin:miter;stroke-width:0.8;"/>
   </g>
   <g id="patch_6">
    <path d="M 46.965625 22.318125 
L 325.965625 22.318125 
" style="fill:none;stroke:#000000;stroke-linecap:square;stroke-linejoin:miter;stroke-width:0.8;"/>
   </g>
   <g id="text_12">
    <!-- X vs A based on color group -->
    <defs>
     <path d="M 48.6875 27.296875 
Q 48.6875 37.203125 44.609375 42.84375 
Q 40.53125 48.484375 33.40625 48.484375 
Q 26.265625 48.484375 22.1875 42.84375 
Q 18.109375 37.203125 18.109375 27.296875 
Q 18.109375 17.390625 22.1875 11.75 
Q 26.265625 6.109375 33.40625 6.109375 
Q 40.53125 6.109375 44.609375 11.75 
Q 48.6875 17.390625 48.6875 27.296875 
z
M 18.109375 46.390625 
Q 20.953125 51.265625 25.265625 53.625 
Q 29.59375 56 35.59375 56 
Q 45.5625 56 51.78125 48.09375 
Q 58.015625 40.1875 58.015625 27.296875 
Q 58.015625 14.40625 51.78125 6.484375 
Q 45.5625 -1.421875 35.59375 -1.421875 
Q 29.59375 -1.421875 25.265625 0.953125 
Q 20.953125 3.328125 18.109375 8.203125 
L 18.109375 0 
L 9.078125 0 
L 9.078125 75.984375 
L 18.109375 75.984375 
z
" id="DejaVuSans-98"/>
     <path d="M 45.40625 46.390625 
L 45.40625 75.984375 
L 54.390625 75.984375 
L 54.390625 0 
L 45.40625 0 
L 45.40625 8.203125 
Q 42.578125 3.328125 38.25 0.953125 
Q 33.9375 -1.421875 27.875 -1.421875 
Q 17.96875 -1.421875 11.734375 6.484375 
Q 5.515625 14.40625 5.515625 27.296875 
Q 5.515625 40.1875 11.734375 48.09375 
Q 17.96875 56 27.875 56 
Q 33.9375 56 38.25 53.625 
Q 42.578125 51.265625 45.40625 46.390625 
z
M 14.796875 27.296875 
Q 14.796875 17.390625 18.875 11.75 
Q 22.953125 6.109375 30.078125 6.109375 
Q 37.203125 6.109375 41.296875 11.75 
Q 45.40625 17.390625 45.40625 27.296875 
Q 45.40625 37.203125 41.296875 42.84375 
Q 37.203125 48.484375 30.078125 48.484375 
Q 22.953125 48.484375 18.875 42.84375 
Q 14.796875 37.203125 14.796875 27.296875 
z
" id="DejaVuSans-100"/>
     <path d="M 30.609375 48.390625 
Q 23.390625 48.390625 19.1875 42.75 
Q 14.984375 37.109375 14.984375 27.296875 
Q 14.984375 17.484375 19.15625 11.84375 
Q 23.34375 6.203125 30.609375 6.203125 
Q 37.796875 6.203125 41.984375 11.859375 
Q 46.1875 17.53125 46.1875 27.296875 
Q 46.1875 37.015625 41.984375 42.703125 
Q 37.796875 48.390625 30.609375 48.390625 
z
M 30.609375 56 
Q 42.328125 56 49.015625 48.375 
Q 55.71875 40.765625 55.71875 27.296875 
Q 55.71875 13.875 49.015625 6.21875 
Q 42.328125 -1.421875 30.609375 -1.421875 
Q 18.84375 -1.421875 12.171875 6.21875 
Q 5.515625 13.875 5.515625 27.296875 
Q 5.515625 40.765625 12.171875 48.375 
Q 18.84375 56 30.609375 56 
z
" id="DejaVuSans-111"/>
     <path d="M 54.890625 33.015625 
L 54.890625 0 
L 45.90625 0 
L 45.90625 32.71875 
Q 45.90625 40.484375 42.875 44.328125 
Q 39.84375 48.1875 33.796875 48.1875 
Q 26.515625 48.1875 22.3125 43.546875 
Q 18.109375 38.921875 18.109375 30.90625 
L 18.109375 0 
L 9.078125 0 
L 9.078125 54.6875 
L 18.109375 54.6875 
L 18.109375 46.1875 
Q 21.34375 51.125 25.703125 53.5625 
Q 30.078125 56 35.796875 56 
Q 45.21875 56 50.046875 50.171875 
Q 54.890625 44.34375 54.890625 33.015625 
z
" id="DejaVuSans-110"/>
     <path d="M 48.78125 52.59375 
L 48.78125 44.1875 
Q 44.96875 46.296875 41.140625 47.34375 
Q 37.3125 48.390625 33.40625 48.390625 
Q 24.65625 48.390625 19.8125 42.84375 
Q 14.984375 37.3125 14.984375 27.296875 
Q 14.984375 17.28125 19.8125 11.734375 
Q 24.65625 6.203125 33.40625 6.203125 
Q 37.3125 6.203125 41.140625 7.25 
Q 44.96875 8.296875 48.78125 10.40625 
L 48.78125 2.09375 
Q 45.015625 0.34375 40.984375 -0.53125 
Q 36.96875 -1.421875 32.421875 -1.421875 
Q 20.0625 -1.421875 12.78125 6.34375 
Q 5.515625 14.109375 5.515625 27.296875 
Q 5.515625 40.671875 12.859375 48.328125 
Q 20.21875 56 33.015625 56 
Q 37.15625 56 41.109375 55.140625 
Q 45.0625 54.296875 48.78125 52.59375 
z
" id="DejaVuSans-99"/>
     <path d="M 41.109375 46.296875 
Q 39.59375 47.171875 37.8125 47.578125 
Q 36.03125 48 33.890625 48 
Q 26.265625 48 22.1875 43.046875 
Q 18.109375 38.09375 18.109375 28.8125 
L 18.109375 0 
L 9.078125 0 
L 9.078125 54.6875 
L 18.109375 54.6875 
L 18.109375 46.1875 
Q 20.953125 51.171875 25.484375 53.578125 
Q 30.03125 56 36.53125 56 
Q 37.453125 56 38.578125 55.875 
Q 39.703125 55.765625 41.0625 55.515625 
z
" id="DejaVuSans-114"/>
     <path d="M 45.40625 27.984375 
Q 45.40625 37.75 41.375 43.109375 
Q 37.359375 48.484375 30.078125 48.484375 
Q 22.859375 48.484375 18.828125 43.109375 
Q 14.796875 37.75 14.796875 27.984375 
Q 14.796875 18.265625 18.828125 12.890625 
Q 22.859375 7.515625 30.078125 7.515625 
Q 37.359375 7.515625 41.375 12.890625 
Q 45.40625 18.265625 45.40625 27.984375 
z
M 54.390625 6.78125 
Q 54.390625 -7.171875 48.1875 -13.984375 
Q 42 -20.796875 29.203125 -20.796875 
Q 24.46875 -20.796875 20.265625 -20.09375 
Q 16.0625 -19.390625 12.109375 -17.921875 
L 12.109375 -9.1875 
Q 16.0625 -11.328125 19.921875 -12.34375 
Q 23.78125 -13.375 27.78125 -13.375 
Q 36.625 -13.375 41.015625 -8.765625 
Q 45.40625 -4.15625 45.40625 5.171875 
L 45.40625 9.625 
Q 42.625 4.78125 38.28125 2.390625 
Q 33.9375 0 27.875 0 
Q 17.828125 0 11.671875 7.65625 
Q 5.515625 15.328125 5.515625 27.984375 
Q 5.515625 40.671875 11.671875 48.328125 
Q 17.828125 56 27.875 56 
Q 33.9375 56 38.28125 53.609375 
Q 42.625 51.21875 45.40625 46.390625 
L 45.40625 54.6875 
L 54.390625 54.6875 
z
" id="DejaVuSans-103"/>
     <path d="M 18.109375 8.203125 
L 18.109375 -20.796875 
L 9.078125 -20.796875 
L 9.078125 54.6875 
L 18.109375 54.6875 
L 18.109375 46.390625 
Q 20.953125 51.265625 25.265625 53.625 
Q 29.59375 56 35.59375 56 
Q 45.5625 56 51.78125 48.09375 
Q 58.015625 40.1875 58.015625 27.296875 
Q 58.015625 14.40625 51.78125 6.484375 
Q 45.5625 -1.421875 35.59375 -1.421875 
Q 29.59375 -1.421875 25.265625 0.953125 
Q 20.953125 3.328125 18.109375 8.203125 
z
M 48.6875 27.296875 
Q 48.6875 37.203125 44.609375 42.84375 
Q 40.53125 48.484375 33.40625 48.484375 
Q 26.265625 48.484375 22.1875 42.84375 
Q 18.109375 37.203125 18.109375 27.296875 
Q 18.109375 17.390625 22.1875 11.75 
Q 26.265625 6.109375 33.40625 6.109375 
Q 40.53125 6.109375 44.609375 11.75 
Q 48.6875 17.390625 48.6875 27.296875 
z
" id="DejaVuSans-112"/>
    </defs>
    <g transform="translate(102.215312 16.318125)scale(0.12 -0.12)">
     <use xlink:href="#DejaVuSans-88"/>
     <use x="68.505859" xlink:href="#DejaVuSans-32"/>
     <use x="100.292969" xlink:href="#DejaVuSans-118"/>
     <use x="159.472656" xlink:href="#DejaVuSans-115"/>
     <use x="211.572266" xlink:href="#DejaVuSans-32"/>
     <use x="243.359375" xlink:href="#DejaVuSans-65"/>
     <use x="311.767578" xlink:href="#DejaVuSans-32"/>
     <use x="343.554688" xlink:href="#DejaVuSans-98"/>
     <use x="407.03125" xlink:href="#DejaVuSans-97"/>
     <use x="468.310547" xlink:href="#DejaVuSans-115"/>
     <use x="520.410156" xlink:href="#DejaVuSans-101"/>
     <use x="581.933594" xlink:href="#DejaVuSans-100"/>
     <use x="645.410156" xlink:href="#DejaVuSans-32"/>
     <use x="677.197266" xlink:href="#DejaVuSans-111"/>
     <use x="738.378906" xlink:href="#DejaVuSans-110"/>
     <use x="801.757812" xlink:href="#DejaVuSans-32"/>
     <use x="833.544922" xlink:href="#DejaVuSans-99"/>
     <use x="888.525391" xlink:href="#DejaVuSans-111"/>
     <use x="949.707031" xlink:href="#DejaVuSans-108"/>
     <use x="977.490234" xlink:href="#DejaVuSans-111"/>
     <use x="1038.671875" xlink:href="#DejaVuSans-114"/>
     <use x="1079.785156" xlink:href="#DejaVuSans-32"/>
     <use x="1111.572266" xlink:href="#DejaVuSans-103"/>
     <use x="1175.048828" xlink:href="#DejaVuSans-114"/>
     <use x="1216.130859" xlink:href="#DejaVuSans-111"/>
     <use x="1277.3125" xlink:href="#DejaVuSans-117"/>
     <use x="1340.691406" xlink:href="#DejaVuSans-112"/>
    </g>
   </g>
  </g>
 </g>
 <defs>
  <clipPath id="p7be5bd8da6">
   <rect height="166.32" width="279" x="46.965625" y="22.318125"/>
  </clipPath>
 </defs>
</svg>
