<?xml version="1.0" encoding="utf-8" standalone="no"?>
<!DOCTYPE svg PUBLIC "-//W3C//DTD SVG 1.1//EN"
  "http://www.w3.org/Graphics/SVG/1.1/DTD/svg11.dtd">
<!-- Created with matplotlib (https://matplotlib.org/) -->
<svg height="200.898125pt" version="1.1" viewBox="0 0 322.9875 200.898125" width="322.9875pt" xmlns="http://www.w3.org/2000/svg" xmlns:xlink="http://www.w3.org/1999/xlink">
 <defs>
  <style type="text/css">
*{stroke-linecap:butt;stroke-linejoin:round;}
  </style>
 </defs>
 <g id="figure_1">
  <g id="patch_1">
   <path d="M -0 200.898125 
L 322.9875 200.898125 
L 322.9875 0 
L -0 0 
z
" style="fill:#ffffff;"/>
  </g>
  <g id="axes_1">
   <g id="patch_2">
    <path d="M 33.2875 177.02 
L 312.2875 177.02 
L 312.2875 10.7 
L 33.2875 10.7 
z
" style="fill:#ffffff;"/>
   </g>
   <g id="PathCollection_1">
    <defs>
     <path d="M 0 3 
C 0.795609 3 1.55874 2.683901 2.12132 2.12132 
C 2.683901 1.55874 3 0.795609 3 0 
C 3 -0.795609 2.683901 -1.55874 2.12132 -2.12132 
C 1.55874 -2.683901 0.795609 -3 0 -3 
C -0.795609 -3 -1.55874 -2.683901 -2.12132 -2.12132 
C -2.683901 -1.55874 -3 -0.795609 -3 0 
C -3 0.795609 -2.683901 1.55874 -2.12132 2.12132 
C -1.55874 2.683901 -0.795609 3 0 3 
z
" id="m988543ce8c" style="stroke:#9acd32;"/>
    </defs>
    <g clip-path="url(#p3a2b0ebd53)">
     <use style="fill:#9acd32;stroke:#9acd32;" x="132.87381" xlink:href="#m988543ce8c" y="140.88383"/>
     <use style="fill:#9acd32;stroke:#9acd32;" x="217.260716" xlink:href="#m988543ce8c" y="136.098264"/>
     <use style="fill:#9acd32;stroke:#9acd32;" x="204.516062" xlink:href="#m988543ce8c" y="134.081207"/>
     <use style="fill:#9acd32;stroke:#9acd32;" x="251.588668" xlink:href="#m988543ce8c" y="132.330522"/>
     <use style="fill:#9acd32;stroke:#9acd32;" x="113.708265" xlink:href="#m988543ce8c" y="135.41831"/>
     <use style="fill:#9acd32;stroke:#9acd32;" x="128.465074" xlink:href="#m988543ce8c" y="135.983083"/>
     <use style="fill:#9acd32;stroke:#9acd32;" x="101.262886" xlink:href="#m988543ce8c" y="128.776044"/>
     <use style="fill:#9acd32;stroke:#9acd32;" x="181.203677" xlink:href="#m988543ce8c" y="128.423548"/>
     <use style="fill:#9acd32;stroke:#9acd32;" x="242.409402" xlink:href="#m988543ce8c" y="128.962953"/>
     <use style="fill:#9acd32;stroke:#9acd32;" x="111.302146" xlink:href="#m988543ce8c" y="135.280763"/>
     <use style="fill:#9acd32;stroke:#9acd32;" x="165.518682" xlink:href="#m988543ce8c" y="131.225343"/>
     <use style="fill:#9acd32;stroke:#9acd32;" x="79.536019" xlink:href="#m988543ce8c" y="129.799715"/>
     <use style="fill:#9acd32;stroke:#9acd32;" x="254.411845" xlink:href="#m988543ce8c" y="125.33461"/>
     <use style="fill:#9acd32;stroke:#9acd32;" x="202.12942" xlink:href="#m988543ce8c" y="132.190306"/>
     <use style="fill:#9acd32;stroke:#9acd32;" x="86.802432" xlink:href="#m988543ce8c" y="124.39533"/>
     <use style="fill:#9acd32;stroke:#9acd32;" x="179.705279" xlink:href="#m988543ce8c" y="136.209999"/>
     <use style="fill:#9acd32;stroke:#9acd32;" x="152.573946" xlink:href="#m988543ce8c" y="132.430296"/>
     <use style="fill:#9acd32;stroke:#9acd32;" x="117.455357" xlink:href="#m988543ce8c" y="124.713632"/>
     <use style="fill:#9acd32;stroke:#9acd32;" x="160.498916" xlink:href="#m988543ce8c" y="137.439158"/>
     <use style="fill:#9acd32;stroke:#9acd32;" x="214.797782" xlink:href="#m988543ce8c" y="129.267314"/>
     <use style="fill:#9acd32;stroke:#9acd32;" x="154.72888" xlink:href="#m988543ce8c" y="138.878023"/>
     <use style="fill:#9acd32;stroke:#9acd32;" x="151.748493" xlink:href="#m988543ce8c" y="137.209908"/>
     <use style="fill:#9acd32;stroke:#9acd32;" x="143.352739" xlink:href="#m988543ce8c" y="127.066793"/>
     <use style="fill:#9acd32;stroke:#9acd32;" x="170.565178" xlink:href="#m988543ce8c" y="127.155766"/>
     <use style="fill:#9acd32;stroke:#9acd32;" x="63.128608" xlink:href="#m988543ce8c" y="129.614865"/>
     <use style="fill:#9acd32;stroke:#9acd32;" x="161.942214" xlink:href="#m988543ce8c" y="138.095864"/>
     <use style="fill:#9acd32;stroke:#9acd32;" x="292.079991" xlink:href="#m988543ce8c" y="138.394142"/>
     <use style="fill:#9acd32;stroke:#9acd32;" x="129.289801" xlink:href="#m988543ce8c" y="120.747832"/>
     <use style="fill:#9acd32;stroke:#9acd32;" x="132.378305" xlink:href="#m988543ce8c" y="121.644793"/>
     <use style="fill:#9acd32;stroke:#9acd32;" x="220.784849" xlink:href="#m988543ce8c" y="133.206866"/>
     <use style="fill:#9acd32;stroke:#9acd32;" x="105.647953" xlink:href="#m988543ce8c" y="128.624346"/>
     <use style="fill:#9acd32;stroke:#9acd32;" x="129.637041" xlink:href="#m988543ce8c" y="141.12857"/>
     <use style="fill:#9acd32;stroke:#9acd32;" x="215.844774" xlink:href="#m988543ce8c" y="127.079716"/>
     <use style="fill:#9acd32;stroke:#9acd32;" x="154.386851" xlink:href="#m988543ce8c" y="128.906088"/>
     <use style="fill:#9acd32;stroke:#9acd32;" x="61.906612" xlink:href="#m988543ce8c" y="145.182429"/>
     <use style="fill:#9acd32;stroke:#9acd32;" x="202.720264" xlink:href="#m988543ce8c" y="125.178993"/>
     <use style="fill:#9acd32;stroke:#9acd32;" x="250.444963" xlink:href="#m988543ce8c" y="136.580081"/>
     <use style="fill:#9acd32;stroke:#9acd32;" x="184.521388" xlink:href="#m988543ce8c" y="126.570547"/>
     <use style="fill:#9acd32;stroke:#9acd32;" x="136.403993" xlink:href="#m988543ce8c" y="138.952834"/>
     <use style="fill:#9acd32;stroke:#9acd32;" x="109.384059" xlink:href="#m988543ce8c" y="128.892487"/>
    </g>
   </g>
   <g id="PathCollection_2">
    <defs>
     <path d="M 0 3 
C 0.795609 3 1.55874 2.683901 2.12132 2.12132 
C 2.683901 1.55874 3 0.795609 3 0 
C 3 -0.795609 2.683901 -1.55874 2.12132 -2.12132 
C 1.55874 -2.683901 0.795609 -3 0 -3 
C -0.795609 -3 -1.55874 -2.683901 -2.12132 -2.12132 
C -2.683901 -1.55874 -3 -0.795609 -3 0 
C -3 0.795609 -2.683901 1.55874 -2.12132 2.12132 
C -1.55874 2.683901 -0.795609 3 0 3 
z
" id="mb76ea012da" style="stroke:#00bfff;"/>
    </defs>
    <g clip-path="url(#p3a2b0ebd53)">
     <use style="fill:#00bfff;stroke:#00bfff;" x="251.295924" xlink:href="#mb76ea012da" y="30.461042"/>
     <use style="fill:#00bfff;stroke:#00bfff;" x="206.272048" xlink:href="#mb76ea012da" y="34.144006"/>
     <use style="fill:#00bfff;stroke:#00bfff;" x="297.645116" xlink:href="#mb76ea012da" y="36.824644"/>
     <use style="fill:#00bfff;stroke:#00bfff;" x="172.335659" xlink:href="#mb76ea012da" y="33.704639"/>
     <use style="fill:#00bfff;stroke:#00bfff;" x="157.868085" xlink:href="#mb76ea012da" y="31.648001"/>
     <use style="fill:#00bfff;stroke:#00bfff;" x="138.135107" xlink:href="#mb76ea012da" y="38.339706"/>
     <use style="fill:#00bfff;stroke:#00bfff;" x="186.392304" xlink:href="#mb76ea012da" y="25.243057"/>
     <use style="fill:#00bfff;stroke:#00bfff;" x="203.479524" xlink:href="#mb76ea012da" y="32.509806"/>
     <use style="fill:#00bfff;stroke:#00bfff;" x="239.395038" xlink:href="#mb76ea012da" y="31.631653"/>
     <use style="fill:#00bfff;stroke:#00bfff;" x="155.336223" xlink:href="#mb76ea012da" y="37.156199"/>
     <use style="fill:#00bfff;stroke:#00bfff;" x="280.333817" xlink:href="#mb76ea012da" y="32.460196"/>
     <use style="fill:#00bfff;stroke:#00bfff;" x="199.958778" xlink:href="#mb76ea012da" y="38.924254"/>
     <use style="fill:#00bfff;stroke:#00bfff;" x="251.595465" xlink:href="#mb76ea012da" y="33.201651"/>
     <use style="fill:#00bfff;stroke:#00bfff;" x="289.865653" xlink:href="#mb76ea012da" y="38.417457"/>
     <use style="fill:#00bfff;stroke:#00bfff;" x="206.376081" xlink:href="#mb76ea012da" y="33.557897"/>
     <use style="fill:#00bfff;stroke:#00bfff;" x="144.409609" xlink:href="#mb76ea012da" y="37.752956"/>
     <use style="fill:#00bfff;stroke:#00bfff;" x="130.280165" xlink:href="#mb76ea012da" y="36.339108"/>
     <use style="fill:#00bfff;stroke:#00bfff;" x="226.963467" xlink:href="#mb76ea012da" y="39.592027"/>
     <use style="fill:#00bfff;stroke:#00bfff;" x="152.239895" xlink:href="#mb76ea012da" y="29.511945"/>
     <use style="fill:#00bfff;stroke:#00bfff;" x="120.444791" xlink:href="#mb76ea012da" y="24.393095"/>
     <use style="fill:#00bfff;stroke:#00bfff;" x="148.715956" xlink:href="#mb76ea012da" y="40.648798"/>
     <use style="fill:#00bfff;stroke:#00bfff;" x="200.678197" xlink:href="#mb76ea012da" y="37.499606"/>
     <use style="fill:#00bfff;stroke:#00bfff;" x="155.754405" xlink:href="#mb76ea012da" y="35.221009"/>
     <use style="fill:#00bfff;stroke:#00bfff;" x="185.836791" xlink:href="#mb76ea012da" y="28.213051"/>
     <use style="fill:#00bfff;stroke:#00bfff;" x="215.430343" xlink:href="#mb76ea012da" y="18.60928"/>
     <use style="fill:#00bfff;stroke:#00bfff;" x="221.700585" xlink:href="#mb76ea012da" y="27.826482"/>
     <use style="fill:#00bfff;stroke:#00bfff;" x="136.032132" xlink:href="#mb76ea012da" y="36.747982"/>
    </g>
   </g>
   <g id="PathCollection_3">
    <defs>
     <path d="M 0 3 
C 0.795609 3 1.55874 2.683901 2.12132 2.12132 
C 2.683901 1.55874 3 0.795609 3 0 
C 3 -0.795609 2.683901 -1.55874 2.12132 -2.12132 
C 1.55874 -2.683901 0.795609 -3 0 -3 
C -0.795609 -3 -1.55874 -2.683901 -2.12132 -2.12132 
C -2.683901 -1.55874 -3 -0.795609 -3 0 
C -3 0.795609 -2.683901 1.55874 -2.12132 2.12132 
C -1.55874 2.683901 -0.795609 3 0 3 
z
" id="mb0a7e22f3b" style="stroke:#ff69b4;"/>
    </defs>
    <g clip-path="url(#p3a2b0ebd53)">
     <use style="fill:#ff69b4;stroke:#ff69b4;" x="223.444877" xlink:href="#mb0a7e22f3b" y="86.730213"/>
     <use style="fill:#ff69b4;stroke:#ff69b4;" x="187.566813" xlink:href="#mb0a7e22f3b" y="70.872079"/>
     <use style="fill:#ff69b4;stroke:#ff69b4;" x="129.901401" xlink:href="#mb0a7e22f3b" y="76.434805"/>
     <use style="fill:#ff69b4;stroke:#ff69b4;" x="155.615815" xlink:href="#mb0a7e22f3b" y="74.333074"/>
     <use style="fill:#ff69b4;stroke:#ff69b4;" x="169.176962" xlink:href="#mb0a7e22f3b" y="80.692922"/>
     <use style="fill:#ff69b4;stroke:#ff69b4;" x="205.412817" xlink:href="#mb0a7e22f3b" y="81.476102"/>
     <use style="fill:#ff69b4;stroke:#ff69b4;" x="206.238373" xlink:href="#mb0a7e22f3b" y="75.0373"/>
     <use style="fill:#ff69b4;stroke:#ff69b4;" x="193.949415" xlink:href="#mb0a7e22f3b" y="79.616321"/>
     <use style="fill:#ff69b4;stroke:#ff69b4;" x="153.927059" xlink:href="#mb0a7e22f3b" y="79.642542"/>
    </g>
   </g>
   <g id="PathCollection_4">
    <defs>
     <path d="M 0 3 
C 0.795609 3 1.55874 2.683901 2.12132 2.12132 
C 2.683901 1.55874 3 0.795609 3 0 
C 3 -0.795609 2.683901 -1.55874 2.12132 -2.12132 
C 1.55874 -2.683901 0.795609 -3 0 -3 
C -0.795609 -3 -1.55874 -2.683901 -2.12132 -2.12132 
C -2.683901 -1.55874 -3 -0.795609 -3 0 
C -3 0.795609 -2.683901 1.55874 -2.12132 2.12132 
C -1.55874 2.683901 -0.795609 3 0 3 
z
" id="m038b79605c" style="stroke:#ff6347;"/>
    </defs>
    <g clip-path="url(#p3a2b0ebd53)">
     <use style="fill:#ff6347;stroke:#ff6347;" x="171.315099" xlink:href="#m038b79605c" y="157.414966"/>
     <use style="fill:#ff6347;stroke:#ff6347;" x="199.881291" xlink:href="#m038b79605c" y="161.516619"/>
     <use style="fill:#ff6347;stroke:#ff6347;" x="258.984557" xlink:href="#m038b79605c" y="162.445476"/>
     <use style="fill:#ff6347;stroke:#ff6347;" x="159.871528" xlink:href="#m038b79605c" y="160.506156"/>
     <use style="fill:#ff6347;stroke:#ff6347;" x="226.468283" xlink:href="#m038b79605c" y="167.646715"/>
     <use style="fill:#ff6347;stroke:#ff6347;" x="192.142159" xlink:href="#m038b79605c" y="167.369086"/>
     <use style="fill:#ff6347;stroke:#ff6347;" x="208.772411" xlink:href="#m038b79605c" y="152.600597"/>
     <use style="fill:#ff6347;stroke:#ff6347;" x="117.231666" xlink:href="#m038b79605c" y="161.875495"/>
     <use style="fill:#ff6347;stroke:#ff6347;" x="228.718162" xlink:href="#m038b79605c" y="162.919252"/>
     <use style="fill:#ff6347;stroke:#ff6347;" x="80.916538" xlink:href="#m038b79605c" y="164.092755"/>
     <use style="fill:#ff6347;stroke:#ff6347;" x="282.81621" xlink:href="#m038b79605c" y="163.942826"/>
     <use style="fill:#ff6347;stroke:#ff6347;" x="147.760131" xlink:href="#m038b79605c" y="160.528879"/>
     <use style="fill:#ff6347;stroke:#ff6347;" x="196.740373" xlink:href="#m038b79605c" y="144.67329"/>
     <use style="fill:#ff6347;stroke:#ff6347;" x="173.739038" xlink:href="#m038b79605c" y="155.700057"/>
     <use style="fill:#ff6347;stroke:#ff6347;" x="194.569972" xlink:href="#m038b79605c" y="162.372791"/>
     <use style="fill:#ff6347;stroke:#ff6347;" x="143.765027" xlink:href="#m038b79605c" y="149.937396"/>
     <use style="fill:#ff6347;stroke:#ff6347;" x="146.170475" xlink:href="#m038b79605c" y="163.516967"/>
     <use style="fill:#ff6347;stroke:#ff6347;" x="199.977335" xlink:href="#m038b79605c" y="164.092179"/>
     <use style="fill:#ff6347;stroke:#ff6347;" x="210.706041" xlink:href="#m038b79605c" y="150.155618"/>
     <use style="fill:#ff6347;stroke:#ff6347;" x="124.71504" xlink:href="#m038b79605c" y="155.910167"/>
     <use style="fill:#ff6347;stroke:#ff6347;" x="149.133159" xlink:href="#m038b79605c" y="157.186417"/>
     <use style="fill:#ff6347;stroke:#ff6347;" x="217.959722" xlink:href="#m038b79605c" y="161.225903"/>
     <use style="fill:#ff6347;stroke:#ff6347;" x="47.993784" xlink:href="#m038b79605c" y="152.221816"/>
     <use style="fill:#ff6347;stroke:#ff6347;" x="274.556823" xlink:href="#m038b79605c" y="162.656151"/>
    </g>
   </g>
   <g id="matplotlib.axis_1">
    <g id="xtick_1">
     <g id="line2d_1">
      <defs>
       <path d="M 0 0 
L 0 3.5 
" id="m4dc8d97736" style="stroke:#000000;stroke-width:0.8;"/>
      </defs>
      <g>
       <use style="stroke:#000000;stroke-width:0.8;" x="87.541752" xlink:href="#m4dc8d97736" y="177.02"/>
      </g>
     </g>
     <g id="text_1">
      <!-- 20 -->
      <defs>
       <path d="M 19.1875 8.296875 
L 53.609375 8.296875 
L 53.609375 0 
L 7.328125 0 
L 7.328125 8.296875 
Q 12.9375 14.109375 22.625 23.890625 
Q 32.328125 33.6875 34.8125 36.53125 
Q 39.546875 41.84375 41.421875 45.53125 
Q 43.3125 49.21875 43.3125 52.78125 
Q 43.3125 58.59375 39.234375 62.25 
Q 35.15625 65.921875 28.609375 65.921875 
Q 23.96875 65.921875 18.8125 64.3125 
Q 13.671875 62.703125 7.8125 59.421875 
L 7.8125 69.390625 
Q 13.765625 71.78125 18.9375 73 
Q 24.125 74.21875 28.421875 74.21875 
Q 39.75 74.21875 46.484375 68.546875 
Q 53.21875 62.890625 53.21875 53.421875 
Q 53.21875 48.921875 51.53125 44.890625 
Q 49.859375 40.875 45.40625 35.40625 
Q 44.1875 33.984375 37.640625 27.21875 
Q 31.109375 20.453125 19.1875 8.296875 
z
" id="DejaVuSans-50"/>
       <path d="M 31.78125 66.40625 
Q 24.171875 66.40625 20.328125 58.90625 
Q 16.5 51.421875 16.5 36.375 
Q 16.5 21.390625 20.328125 13.890625 
Q 24.171875 6.390625 31.78125 6.390625 
Q 39.453125 6.390625 43.28125 13.890625 
Q 47.125 21.390625 47.125 36.375 
Q 47.125 51.421875 43.28125 58.90625 
Q 39.453125 66.40625 31.78125 66.40625 
z
M 31.78125 74.21875 
Q 44.046875 74.21875 50.515625 64.515625 
Q 56.984375 54.828125 56.984375 36.375 
Q 56.984375 17.96875 50.515625 8.265625 
Q 44.046875 -1.421875 31.78125 -1.421875 
Q 19.53125 -1.421875 13.0625 8.265625 
Q 6.59375 17.96875 6.59375 36.375 
Q 6.59375 54.828125 13.0625 64.515625 
Q 19.53125 74.21875 31.78125 74.21875 
z
" id="DejaVuSans-48"/>
      </defs>
      <g transform="translate(81.179252 191.618437)scale(0.1 -0.1)">
       <use xlink:href="#DejaVuSans-50"/>
       <use x="63.623047" xlink:href="#DejaVuSans-48"/>
      </g>
     </g>
    </g>
    <g id="xtick_2">
     <g id="line2d_2">
      <g>
       <use style="stroke:#000000;stroke-width:0.8;" x="145.098279" xlink:href="#m4dc8d97736" y="177.02"/>
      </g>
     </g>
     <g id="text_2">
      <!-- 40 -->
      <defs>
       <path d="M 37.796875 64.3125 
L 12.890625 25.390625 
L 37.796875 25.390625 
z
M 35.203125 72.90625 
L 47.609375 72.90625 
L 47.609375 25.390625 
L 58.015625 25.390625 
L 58.015625 17.1875 
L 47.609375 17.1875 
L 47.609375 0 
L 37.796875 0 
L 37.796875 17.1875 
L 4.890625 17.1875 
L 4.890625 26.703125 
z
" id="DejaVuSans-52"/>
      </defs>
      <g transform="translate(138.735779 191.618437)scale(0.1 -0.1)">
       <use xlink:href="#DejaVuSans-52"/>
       <use x="63.623047" xlink:href="#DejaVuSans-48"/>
      </g>
     </g>
    </g>
    <g id="xtick_3">
     <g id="line2d_3">
      <g>
       <use style="stroke:#000000;stroke-width:0.8;" x="202.654805" xlink:href="#m4dc8d97736" y="177.02"/>
      </g>
     </g>
     <g id="text_3">
      <!-- 60 -->
      <defs>
       <path d="M 33.015625 40.375 
Q 26.375 40.375 22.484375 35.828125 
Q 18.609375 31.296875 18.609375 23.390625 
Q 18.609375 15.53125 22.484375 10.953125 
Q 26.375 6.390625 33.015625 6.390625 
Q 39.65625 6.390625 43.53125 10.953125 
Q 47.40625 15.53125 47.40625 23.390625 
Q 47.40625 31.296875 43.53125 35.828125 
Q 39.65625 40.375 33.015625 40.375 
z
M 52.59375 71.296875 
L 52.59375 62.3125 
Q 48.875 64.0625 45.09375 64.984375 
Q 41.3125 65.921875 37.59375 65.921875 
Q 27.828125 65.921875 22.671875 59.328125 
Q 17.53125 52.734375 16.796875 39.40625 
Q 19.671875 43.65625 24.015625 45.921875 
Q 28.375 48.1875 33.59375 48.1875 
Q 44.578125 48.1875 50.953125 41.515625 
Q 57.328125 34.859375 57.328125 23.390625 
Q 57.328125 12.15625 50.6875 5.359375 
Q 44.046875 -1.421875 33.015625 -1.421875 
Q 20.359375 -1.421875 13.671875 8.265625 
Q 6.984375 17.96875 6.984375 36.375 
Q 6.984375 53.65625 15.1875 63.9375 
Q 23.390625 74.21875 37.203125 74.21875 
Q 40.921875 74.21875 44.703125 73.484375 
Q 48.484375 72.75 52.59375 71.296875 
z
" id="DejaVuSans-54"/>
      </defs>
      <g transform="translate(196.292305 191.618437)scale(0.1 -0.1)">
       <use xlink:href="#DejaVuSans-54"/>
       <use x="63.623047" xlink:href="#DejaVuSans-48"/>
      </g>
     </g>
    </g>
    <g id="xtick_4">
     <g id="line2d_4">
      <g>
       <use style="stroke:#000000;stroke-width:0.8;" x="260.211332" xlink:href="#m4dc8d97736" y="177.02"/>
      </g>
     </g>
     <g id="text_4">
      <!-- 80 -->
      <defs>
       <path d="M 31.78125 34.625 
Q 24.75 34.625 20.71875 30.859375 
Q 16.703125 27.09375 16.703125 20.515625 
Q 16.703125 13.921875 20.71875 10.15625 
Q 24.75 6.390625 31.78125 6.390625 
Q 38.8125 6.390625 42.859375 10.171875 
Q 46.921875 13.96875 46.921875 20.515625 
Q 46.921875 27.09375 42.890625 30.859375 
Q 38.875 34.625 31.78125 34.625 
z
M 21.921875 38.8125 
Q 15.578125 40.375 12.03125 44.71875 
Q 8.5 49.078125 8.5 55.328125 
Q 8.5 64.0625 14.71875 69.140625 
Q 20.953125 74.21875 31.78125 74.21875 
Q 42.671875 74.21875 48.875 69.140625 
Q 55.078125 64.0625 55.078125 55.328125 
Q 55.078125 49.078125 51.53125 44.71875 
Q 48 40.375 41.703125 38.8125 
Q 48.828125 37.15625 52.796875 32.3125 
Q 56.78125 27.484375 56.78125 20.515625 
Q 56.78125 9.90625 50.3125 4.234375 
Q 43.84375 -1.421875 31.78125 -1.421875 
Q 19.734375 -1.421875 13.25 4.234375 
Q 6.78125 9.90625 6.78125 20.515625 
Q 6.78125 27.484375 10.78125 32.3125 
Q 14.796875 37.15625 21.921875 38.8125 
z
M 18.3125 54.390625 
Q 18.3125 48.734375 21.84375 45.5625 
Q 25.390625 42.390625 31.78125 42.390625 
Q 38.140625 42.390625 41.71875 45.5625 
Q 45.3125 48.734375 45.3125 54.390625 
Q 45.3125 60.0625 41.71875 63.234375 
Q 38.140625 66.40625 31.78125 66.40625 
Q 25.390625 66.40625 21.84375 63.234375 
Q 18.3125 60.0625 18.3125 54.390625 
z
" id="DejaVuSans-56"/>
      </defs>
      <g transform="translate(253.848832 191.618437)scale(0.1 -0.1)">
       <use xlink:href="#DejaVuSans-56"/>
       <use x="63.623047" xlink:href="#DejaVuSans-48"/>
      </g>
     </g>
    </g>
   </g>
   <g id="matplotlib.axis_2">
    <g id="ytick_1">
     <g id="line2d_5">
      <defs>
       <path d="M 0 0 
L -3.5 0 
" id="mefc725052d" style="stroke:#000000;stroke-width:0.8;"/>
      </defs>
      <g>
       <use style="stroke:#000000;stroke-width:0.8;" x="33.2875" xlink:href="#mefc725052d" y="149.37141"/>
      </g>
     </g>
     <g id="text_5">
      <!-- 50 -->
      <defs>
       <path d="M 10.796875 72.90625 
L 49.515625 72.90625 
L 49.515625 64.59375 
L 19.828125 64.59375 
L 19.828125 46.734375 
Q 21.96875 47.46875 24.109375 47.828125 
Q 26.265625 48.1875 28.421875 48.1875 
Q 40.625 48.1875 47.75 41.5 
Q 54.890625 34.8125 54.890625 23.390625 
Q 54.890625 11.625 47.5625 5.09375 
Q 40.234375 -1.421875 26.90625 -1.421875 
Q 22.3125 -1.421875 17.546875 -0.640625 
Q 12.796875 0.140625 7.71875 1.703125 
L 7.71875 11.625 
Q 12.109375 9.234375 16.796875 8.0625 
Q 21.484375 6.890625 26.703125 6.890625 
Q 35.15625 6.890625 40.078125 11.328125 
Q 45.015625 15.765625 45.015625 23.390625 
Q 45.015625 31 40.078125 35.4375 
Q 35.15625 39.890625 26.703125 39.890625 
Q 22.75 39.890625 18.8125 39.015625 
Q 14.890625 38.140625 10.796875 36.28125 
z
" id="DejaVuSans-53"/>
      </defs>
      <g transform="translate(13.5625 153.170628)scale(0.1 -0.1)">
       <use xlink:href="#DejaVuSans-53"/>
       <use x="63.623047" xlink:href="#DejaVuSans-48"/>
      </g>
     </g>
    </g>
    <g id="ytick_2">
     <g id="line2d_6">
      <g>
       <use style="stroke:#000000;stroke-width:0.8;" x="33.2875" xlink:href="#mefc725052d" y="120.515514"/>
      </g>
     </g>
     <g id="text_6">
      <!-- 100 -->
      <defs>
       <path d="M 12.40625 8.296875 
L 28.515625 8.296875 
L 28.515625 63.921875 
L 10.984375 60.40625 
L 10.984375 69.390625 
L 28.421875 72.90625 
L 38.28125 72.90625 
L 38.28125 8.296875 
L 54.390625 8.296875 
L 54.390625 0 
L 12.40625 0 
z
" id="DejaVuSans-49"/>
      </defs>
      <g transform="translate(7.2 124.314733)scale(0.1 -0.1)">
       <use xlink:href="#DejaVuSans-49"/>
       <use x="63.623047" xlink:href="#DejaVuSans-48"/>
       <use x="127.246094" xlink:href="#DejaVuSans-48"/>
      </g>
     </g>
    </g>
    <g id="ytick_3">
     <g id="line2d_7">
      <g>
       <use style="stroke:#000000;stroke-width:0.8;" x="33.2875" xlink:href="#mefc725052d" y="91.659618"/>
      </g>
     </g>
     <g id="text_7">
      <!-- 150 -->
      <g transform="translate(7.2 95.458837)scale(0.1 -0.1)">
       <use xlink:href="#DejaVuSans-49"/>
       <use x="63.623047" xlink:href="#DejaVuSans-53"/>
       <use x="127.246094" xlink:href="#DejaVuSans-48"/>
      </g>
     </g>
    </g>
    <g id="ytick_4">
     <g id="line2d_8">
      <g>
       <use style="stroke:#000000;stroke-width:0.8;" x="33.2875" xlink:href="#mefc725052d" y="62.803722"/>
      </g>
     </g>
     <g id="text_8">
      <!-- 200 -->
      <g transform="translate(7.2 66.602941)scale(0.1 -0.1)">
       <use xlink:href="#DejaVuSans-50"/>
       <use x="63.623047" xlink:href="#DejaVuSans-48"/>
       <use x="127.246094" xlink:href="#DejaVuSans-48"/>
      </g>
     </g>
    </g>
    <g id="ytick_5">
     <g id="line2d_9">
      <g>
       <use style="stroke:#000000;stroke-width:0.8;" x="33.2875" xlink:href="#mefc725052d" y="33.947826"/>
      </g>
     </g>
     <g id="text_9">
      <!-- 250 -->
      <g transform="translate(7.2 37.747045)scale(0.1 -0.1)">
       <use xlink:href="#DejaVuSans-50"/>
       <use x="63.623047" xlink:href="#DejaVuSans-53"/>
       <use x="127.246094" xlink:href="#DejaVuSans-48"/>
      </g>
     </g>
    </g>
   </g>
   <g id="patch_3">
    <path d="M 33.2875 177.02 
L 33.2875 10.7 
" style="fill:none;stroke:#000000;stroke-linecap:square;stroke-linejoin:miter;stroke-width:0.8;"/>
   </g>
   <g id="patch_4">
    <path d="M 312.2875 177.02 
L 312.2875 10.7 
" style="fill:none;stroke:#000000;stroke-linecap:square;stroke-linejoin:miter;stroke-width:0.8;"/>
   </g>
   <g id="patch_5">
    <path d="M 33.2875 177.02 
L 312.2875 177.02 
" style="fill:none;stroke:#000000;stroke-linecap:square;stroke-linejoin:miter;stroke-width:0.8;"/>
   </g>
   <g id="patch_6">
    <path d="M 33.2875 10.7 
L 312.2875 10.7 
" style="fill:none;stroke:#000000;stroke-linecap:square;stroke-linejoin:miter;stroke-width:0.8;"/>
   </g>
  </g>
 </g>
 <defs>
  <clipPath id="p3a2b0ebd53">
   <rect height="166.32" width="279" x="33.2875" y="10.7"/>
  </clipPath>
 </defs>
</svg>
